<?xml version="1.0" standalone="no"?>
<!DOCTYPE svg PUBLIC "-//W3C//DTD SVG 20010904//EN"
 "http://www.w3.org/TR/2001/REC-SVG-20010904/DTD/svg10.dtd">
<svg version="1.0" xmlns="http://www.w3.org/2000/svg"
 width="501.000000pt" height="501.000000pt" viewBox="0 0 501.000000 501.000000"
 preserveAspectRatio="xMidYMid meet">
<metadata>
Created by potrace 1.11, written by Peter Selinger 2001-2013
</metadata>
<g transform="translate(0.000000,501.000000) scale(0.100000,-0.100000)"
fill="#000000" stroke="none">
<path d="M485 4999 c-195 -13 -346 -110 -425 -273 -58 -120 -56 -6 -54 -2246
2 -2058 2 -2065 22 -2127 57 -172 201 -302 373 -338 41 -9 584 -11 2125 -10
l2069 1 65 22 c183 61 308 214 338 412 4 30 7 971 7 2090 -1 1883 -3 2040 -18
2099 -47 176 -196 320 -373 361 -38 8 -556 12 -2045 13 -1097 1 -2034 -1
-2084 -4z"/>
</g>
</svg>
