<?xml version="1.0" encoding="utf-8"?>
<!-- Generator: Adobe Illustrator 21.0.0, SVG Export Plug-In . SVG Version: 6.00 Build 0)  -->
<svg version="1.1" id="Layer_1" xmlns="http://www.w3.org/2000/svg" xmlns:xlink="http://www.w3.org/1999/xlink" x="0px" y="0px"
	 width="670.2px" height="182.8px" viewBox="0 0 670.2 182.8" style="enable-background:new 0 0 670.2 182.8;" xml:space="preserve"
	>
<style type="text/css">
	.st0{fill:#FFFFFF;}
</style>
<g>
	<g>
		<path class="st0" d="M299.6,11.6c-13-8.3-35.7-15-40.4-9.7c-4.7,5.3,3.5,27.4,13,39.5C282.6,54.3,313.8,20.6,299.6,11.6z"/>
		<path class="st0" d="M370.6,11.6c13-8.3,35.7-15,40.4-9.7c4.8,5.3-3.5,27.4-13,39.5C387.6,54.3,356.6,20.6,370.6,11.6z"/>
		<ellipse class="st0" cx="360.2" cy="60.3" rx="2.5" ry="8.5"/>
		<ellipse class="st0" cx="310.3" cy="60.3" rx="2.5" ry="8.5"/>
		<path class="st0" d="M335.1,2.5C299.8,2.7,271,24.2,271,50.9c0,26.5,28.8,48,64.1,48s64.3-21.7,64.3-48.2S370.6,2.5,335.1,2.5z
			 M310.3,72c-9.3,0-17.1-7.7-17.1-17.1s7.5-17,17.1-17c9.5,0,17.1,7.5,17.1,17C327.4,64.4,319.7,72,310.3,72z M335.1,82.9
			c-7.1,0-15.6-7.7,0-8.1C350.9,75.1,342.2,82.9,335.1,82.9z M360.2,72c-9.5,0-17.1-7.7-17.1-17.1s7.7-17,17.1-17
			c9.5,0,17.1,7.5,17.1,17S369.6,72,360.2,72z"/>
		<path class="st0" d="M265.4,60.7c-6.5,0-12.2,3.5-14.6,8.7c-0.2,0-0.6,0-0.7,0c-7.3,0-13.2,5.3-13.2,12c0,9.2,9.5,14.3,18.2,11.1
			c5.3,7.7,16.6,8.3,20.9,0c6.5-0.2,16.8-1.2,18.2-11.1c0.8-6.5-5.9-12-13.2-12c-0.2,0-0.6,0-0.7,0C277.6,64.4,272,60.7,265.4,60.7
			L265.4,60.7z M405.1,60.7c6.5,0,12.2,3.5,14.6,8.7c0.2,0-3,0,0.7,0s13.2,5.3,13.2,12c0,9.2-9.5,14.3-18.2,11.1
			c-5.3,7.7-16.6,8.3-20.9,0c-6.5-0.2-16.8-1.2-18.2-11.1c-0.8-6.5,9.3-12,13.2-12c3.7,0,0.6,0,0.7,0
			C392.9,64.4,398.6,60.7,405.1,60.7z"/>
		<g>
			<g>
				<path class="st0" d="M385.4,70.7c16-19.8,48.5-29.4,70.2-15.7C430.5,51.3,407.3,57.7,385.4,70.7z"/>
				<path class="st0" d="M384.6,66c9-21.1,35.7-34.9,57.2-27.6C419.2,41.2,401,50.2,384.6,66z"/>
				<path class="st0" d="M384,76.4c16.2-15.6,52.8-21.1,63.9-4.6C425.6,64.7,405.9,67.9,384,76.4z"/>
			</g>
			<g>
				<path class="st0" d="M284.8,70.7C268.9,51,236.5,41.3,214.6,55C240,51.3,263.1,57.7,284.8,70.7z"/>
				<path class="st0" d="M285.9,66c-9-21.1-35.7-34.9-57.2-27.6C251.3,41.2,269.5,50.2,285.9,66z"/>
				<path class="st0" d="M286.2,76.4c-16.2-15.6-52.8-21.1-63.9-4.6C244.9,64.7,264.3,67.9,286.2,76.4z"/>
			</g>
		</g>
	</g>
	<g>
		<path class="st0" d="M39.4,89.5c2.8,0,5.4,0.5,7.7,1.4c2.3,0.9,4.5,2,6.5,3.1c2,1.1,3.9,2.2,5.7,3.1c1.8,0.9,3.6,1.4,5.5,1.4
			c1.5-0.1,3.1-0.3,5-0.6c1.6-0.3,3.5-0.8,5.7-1.5c2.2-0.7,4.6-1.7,7.3-3.1c-2.7,2.6-4.9,4.8-6.5,6.5c-1.7,1.8-2.9,3.2-3.8,4.3
			c-1.1,1.3-1.8,2.3-2.3,3c-0.5,0.9-1.2,2.2-2.2,4c-0.9,1.6-2.1,3.8-3.7,6.5c-1.5,2.7-3.5,6.3-5.9,10.7c0-5.6-0.5-10-1.6-13.1
			c-1.1-3.1-2.3-5.4-3.6-7.1c-1.5-1.9-3.3-3-5.2-3.5c-1.8-0.2-3.6,0.1-5.4,0.9c-1.8,0.9-3.6,2.1-5.3,3.7c-1.7,1.6-3.4,3.6-5,5.8
			c-1.6,2.2-3,4.6-4.3,7c-1.3,2.4-2.3,4.9-3.1,7.4c-0.8,2.5-1.3,4.8-1.6,6.9c-0.2,1.9-0.3,4-0.1,6.5c0.2,2.5,0.5,5,1.1,7.6
			c0.6,2.6,1.3,5.1,2.2,7.5c0.9,2.4,2,4.6,3.4,6.5c1.3,1.9,2.9,3.5,4.6,4.6c1.7,1.2,3.7,1.7,5.9,1.6c2.4-0.2,4.8-0.9,7.2-2.2
			c2-1.1,4.1-2.7,6.2-4.9c2.1-2.2,3.9-5.4,5.5-9.6l18.1,3.3c-5.2,6.3-10.3,11.1-15.2,14.3c-4.9,3.2-9.3,5.4-13.2,6.7
			c-4.6,1.5-8.9,2.2-12.9,2.1c-5.1-0.6-9.9-2.1-14.4-4.6c-4.5-2.5-8.3-5.6-11.5-9.2c-3.2-3.6-5.7-7.6-7.5-11.9
			c-1.8-4.3-2.6-8.5-2.3-12.7c0.2-2.8,0.7-6,1.7-9.7c1-3.7,2.3-7.5,4-11.4c1.7-3.9,3.7-7.7,6-11.5c2.4-3.7,5-7.1,7.8-10.1
			c2.8-3,6-5.4,9.3-7.2C32.3,90.4,35.8,89.5,39.4,89.5z"/>
		<path class="st0" d="M87.5,130.3c0.4-0.5,0.7-1.4,0.8-2.7s0.4-2.9,1-4.6c0.5-1.7,1.4-3.5,2.7-5.4c1.3-1.9,3.4-3.6,6.3-5.2
			c2.8-1.6,5.6-2.6,8.3-2.9c2.7-0.3,5.2-0.2,7.7,0.4c2.4,0.6,4.7,1.5,6.9,2.7c2.2,1.2,4.1,2.6,5.9,4c1.2,1,2.2,2.4,2.9,4.2
			c0.7,1.8,1.3,3.9,1.7,6.2c0.4,2.3,0.7,4.7,0.9,7.1c0.2,2.5,0.3,4.9,0.4,7.2c0.1,2.3,0.1,4.4,0.2,6.3c0,1.9,0.2,3.5,0.4,4.7
			c0.3,1.8,0.9,3.3,1.7,4.6c0.8,1.3,1.7,2.3,2.7,3.2c1,0.9,2,1.5,2.9,2c1,0.5,1.8,0.9,2.6,1.1c0.5,0.2,0.9,0.4,1.3,0.5
			c0.8,0.3,1.4,0.3,1.7,0c-0.5,1.1-0.9,2.1-1.3,2.9c-0.4,0.8-0.7,1.5-1,2.1c-0.3,0.7-0.6,1.2-0.9,1.6c-0.2,0.5-0.5,0.9-0.9,1.3
			c-0.2,0.4-0.6,0.9-1,1.3c-0.4,0.5-0.8,1-1.2,1.6c-1.1-0.4-2.1-0.9-3-1.5c-0.9-0.6-1.8-1.1-2.5-1.6c-0.9-0.6-1.7-1.1-2.4-1.7
			c-0.7-0.6-1.4-1.2-2.1-2c-0.6-0.6-1.2-1.3-1.8-2.1c-0.6-0.7-1.1-1.5-1.5-2.4c-0.5,1.1-1.6,2.6-3.5,4.5c-1.8,2-4.2,3.7-7.1,5.3
			c-2.9,1.6-6.3,2.7-10.2,3.4c-3.9,0.7-8.1,0.2-12.7-1.3c-2-0.7-3.9-1.6-5.7-2.9c-1.8-1.3-3.3-2.8-4.6-4.6c-1.3-1.8-2.2-3.8-2.7-6.2
			c-0.5-2.3-0.5-4.9,0.1-7.7c0.6-2.8,1.6-5.2,3-7.2c1.5-2,3.2-3.5,5.2-4.8c2-1.2,4.3-2.2,6.8-2.8c2.5-0.6,5.1-1.1,7.8-1.3
			c2.1-0.1,4.2,0,6.3,0.4c1.8,0.3,3.7,0.9,5.6,1.8c2,0.9,3.6,2.1,5,3.8c-0.1-4.3-0.2-7.7-0.4-10.3c-0.2-2.6-0.4-4.5-0.5-5.9
			c-0.3-1.6-0.6-2.8-0.9-3.4c-0.4-0.6-0.8-1.2-1.3-2c-0.4-0.7-1-1.4-1.6-2c-0.7-0.6-1.5-1.1-2.4-1.5c-1-0.4-2.1-0.6-3.4-0.5
			c-1.4,0.1-2.5,0.4-3.3,1.1c-0.8,0.7-1.4,1.4-1.9,2.3c-0.4,0.9-0.7,1.8-0.8,2.7c-0.1,1,0,1.8,0.1,2.6c0.2,0.5,0.4,1,0.7,1.6
			c0.3,0.5,0.8,1,1.3,1.6c0.6,0.6,1.3,1.1,2.3,1.5c-1.9,0.2-3.5,0.4-5,0.5s-2.7,0.3-3.8,0.4c-1.2,0.2-2.3,0.3-3.2,0.4
			c-0.9,0.1-2,0.2-3.2,0.5c-1.1,0.2-2.4,0.4-3.9,0.6c-1.5,0.2-3.3,0.6-5.4,1c0.5-0.6,0.9-1.1,1.3-1.6c0.4-0.5,0.8-1,1.1-1.4
			C86.9,131.1,87.2,130.7,87.5,130.3z M105.8,144.8c-1.5,0.1-2.9,0.4-4.4,1c-1.5,0.6-2.8,1.5-3.9,2.6c-1.1,1.1-2.1,2.4-2.9,3.8
			c-0.8,1.4-1.2,3-1.2,4.7c0,1.7,0.4,3.2,1.3,4.5c0.9,1.3,2,2.3,3.4,3.1c1.4,0.8,3,1.3,4.6,1.5c1.7,0.2,3.3,0,4.9-0.5
			c1.5-0.6,3-1.5,4.4-2.7c1.4-1.3,2.6-2.6,3.5-4.1c1-1.5,1.7-3,2.1-4.5c0.4-1.5,0.4-2.7,0.1-3.7c-0.7-2.1-2.1-3.6-4.4-4.5
			C111.2,145,108.6,144.6,105.8,144.8z"/>
		<path class="st0" d="M144,102.8c2.4,0.2,4.5,0.4,6.2,0.6c1.7,0.2,3,0.3,4.1,0.4c1.2,0.1,2.2,0.1,2.9,0.1c0.7,0.1,1.7,0.1,2.9,0
			c1.1-0.1,2.4-0.2,4.1-0.3c1.7-0.1,3.9-0.3,6.5-0.7c-0.6,0.8-1,1.5-1.3,2.1c-0.3,0.6-0.6,1.2-0.9,1.6l-0.7,1.5
			c-0.2,0.5-0.3,1-0.5,1.5c-0.2,0.4-0.3,0.9-0.4,1.5c-0.1,0.6-0.2,1.2-0.3,1.8h18.8l-1.7,9.9l-17.2-1c-0.4,4.1-0.7,7.4-0.9,9.6
			c-0.2,2.3-0.3,3.9-0.5,5l-0.2,2.2c-0.2,3.1-0.5,6.4-0.7,10.1c-0.2,3.6-0.3,7-0.2,10.1c0.1,3.1,0.4,5.7,0.9,7.7
			c0.5,2.1,1.3,3.1,2.6,3.1s2.4-0.3,3.4-1c1.1-0.6,2-1.4,2.7-2.3c0.8-0.9,1.4-1.8,1.8-2.7c0.4-0.9,0.6-1.6,0.6-2.1
			c0-0.5-0.1-1.1-0.4-1.7c-0.4-1.2-1.1-2.8-2.2-4.6c2.4,0.6,4.4,1.1,6.2,1.7c0.9,0.3,1.7,0.7,2.4,1c0.8,0.3,1.7,0.7,2.8,1.1
			c0.9,0.4,2,0.9,3.4,1.5c1.4,0.6,3,1.3,4.9,2.1c-1.8,0.3-3.1,0.9-3.9,1.6c-0.5,0.3-0.9,0.7-1.1,1.1c-0.6,0.9-1.2,2.1-2,3.6
			c-0.7,1.5-1.8,3-3.3,4.5c-1.5,1.5-3.4,2.8-5.9,3.9c-2.5,1.1-5.8,1.8-9.9,2c-4.3,0.2-7.6-0.6-9.8-2.2c-2.2-1.6-3.9-3.5-4.9-5.7
			c-1-2.2-1.6-4.3-1.8-6.4c-0.2-2.1-0.3-3.5-0.4-4.3c-0.1-0.7-0.1-2.6,0-5.5c0.1-2.9,0.2-6.2,0.4-9.7c0.2-3.5,0.3-7,0.5-10.2
			c0.2-3.3,0.2-5.7,0.2-7.3c0-0.8,0-1.7,0.1-2.6c0-0.7,0-1.5,0.1-2.4c0-0.9,0.1-1.7,0.1-2.5l-17.7-0.1l-0.7-7l17.8,0.5
			c-0.2-0.9-0.3-1.7-0.5-2.5c-0.2-0.8-0.4-1.4-0.5-1.9c-0.2-0.6-0.5-1.1-0.7-1.5c-0.3-0.4-0.7-0.9-1.1-1.3c-0.4-0.4-0.9-0.9-1.6-1.6
			C145.6,104.4,144.9,103.6,144,102.8z"/>
		<path class="st0" d="M241.8,110c-0.7,1.8-1.4,3.4-1.9,4.9c-0.5,1.5-1,2.8-1.4,3.9c-0.4,1.3-0.8,2.4-1.1,3.4
			c-0.3,1.1-0.7,2.4-1.1,3.9c-0.4,1.3-0.9,2.9-1.5,4.8c-0.6,1.9-1.3,4.2-2.1,6.8c-0.7-3.9-1.8-7-3.5-9.3c-1.7-2.3-3.5-4.1-5.2-5.4
			c-2.1-1.5-4.4-2.5-6.8-3.2c-4.4-0.7-7.6-0.7-9.5,0.2c-2,0.9-3.3,2-3.9,3.4c-0.3,0.6-0.7,1.3-1,2.1c-0.4,0.9-0.7,1.7-0.9,2.6
			c-0.2,0.9-0.3,1.8-0.2,2.7c0.1,0.9,0.4,1.6,1.1,2.2c0.4,0.4,1.5,1,3.2,1.6c1.7,0.7,3.8,1.5,6.2,2.3c2.4,0.9,5,1.8,7.7,2.7
			c2.7,1,5.3,2,7.7,2.9s4.6,2,6.3,2.9c1.8,1,3,1.9,3.5,2.7c0.5,0.8,1,1.9,1.6,3.2s1.1,2.8,1.3,4.4c0.3,1.6,0.4,3.2,0.2,4.9
			c-0.1,1.7-0.6,3.3-1.4,4.9c-0.8,1.6-2.1,3.1-3.8,4.5c-1.7,1.4-4.1,2.5-7,3.4c-3.4,1.1-6.7,1.3-9.9,0.9s-6.1-1.2-8.7-2.2
			c-2.6-1-4.9-1.9-6.9-2.9c-2-0.9-3.3-1.3-4.1-1.2c-0.9,0.2-1.9,0.6-3,1.3c-1.1,0.7-2.2,1.5-3.2,2.3c-1,0.8-1.9,1.5-2.6,2.1
			c-0.7,0.6-1.1,0.8-1.1,0.7c0-0.2,0.1-0.7,0.4-1.5c0.3-0.8,0.6-1.8,1-3c0.4-1.2,0.7-2.5,1.1-3.9c0.4-1.4,0.6-2.8,0.8-4.1
			c0.2-1.1,0.4-2.4,0.6-3.9c0.2-1.4,0.4-3.1,0.7-5.1c0.3-2,0.6-4.4,1-7.3c0.4,2.1,1,3.9,1.8,5.5c0.8,1.5,1.5,2.9,2.3,4
			c0.9,1.3,1.7,2.4,2.6,3.3c1.2,1.1,2.7,2.2,4.3,3.2c1.7,1,3.4,1.8,5.1,2.5c1.7,0.7,3.3,1.1,4.9,1.3c1.5,0.2,2.8,0,3.9-0.5
			c1.1-0.5,2-1.4,2.7-2.7c0.8-1.3,1.3-2.7,1.6-4.3c0.3-1.5,0.4-3,0.4-4.5c-0.1-1.4-0.4-2.6-1.1-3.5c-0.5-0.6-1.6-1.3-3.4-2.2
			c-1.8-0.9-3.8-1.9-6.2-2.9c-2.4-1.1-4.9-2.2-7.6-3.3c-2.6-1.1-5.1-2.3-7.4-3.5c-2.3-1.2-4.2-2.3-5.7-3.4c-1.5-1.1-2.3-2.1-2.5-3
			c-0.2-1.3-0.3-2.7-0.4-4.3c-0.1-1.6,0-3.2,0.3-4.8c0.3-1.6,0.9-3.1,1.7-4.6s2.1-2.7,3.8-3.7c1.1-0.6,2.6-1.1,4.5-1.5
			c1.9-0.3,3.9-0.5,6.2-0.5c2.3,0,4.6,0,7.1,0.2c2.4,0.2,4.8,0.4,7,0.7c2.2,0.3,4.3,0.6,6.1,1c1.8,0.4,3.2,0.8,4.2,1.1
			c1.1,0.4,2.4,0.4,3.7,0.1c1.1-0.2,2.4-0.8,3.7-1.6C239.1,113.6,240.4,112.1,241.8,110z"/>
		<path class="st0" d="M244.7,102.8c2.4,0.2,4.5,0.4,6.2,0.6c1.7,0.2,3,0.3,4.1,0.4c1.2,0.1,2.2,0.1,2.9,0.1c0.7,0.1,1.7,0.1,2.9,0
			c1.1-0.1,2.4-0.2,4.1-0.3c1.7-0.1,3.9-0.3,6.5-0.7c-0.6,0.8-1,1.5-1.3,2.1c-0.3,0.6-0.6,1.2-0.9,1.6l-0.7,1.5
			c-0.2,0.5-0.3,1-0.5,1.5c-0.2,0.4-0.3,0.9-0.4,1.5c-0.1,0.6-0.2,1.2-0.3,1.8h18.8l-1.7,9.9l-17.2-1c-0.4,4.1-0.7,7.4-0.9,9.6
			c-0.2,2.3-0.3,3.9-0.5,5l-0.2,2.2c-0.2,3.1-0.5,6.4-0.7,10.1c-0.2,3.6-0.3,7-0.2,10.1c0.1,3.1,0.4,5.7,0.9,7.7
			c0.5,2.1,1.3,3.1,2.6,3.1s2.4-0.3,3.4-1c1.1-0.6,2-1.4,2.7-2.3c0.8-0.9,1.4-1.8,1.8-2.7c0.4-0.9,0.6-1.6,0.6-2.1
			c0-0.5-0.1-1.1-0.4-1.7c-0.4-1.2-1.1-2.8-2.2-4.6c2.4,0.6,4.4,1.1,6.2,1.7c0.9,0.3,1.7,0.7,2.4,1c0.8,0.3,1.7,0.7,2.8,1.1
			c0.9,0.4,2,0.9,3.4,1.5c1.4,0.6,3,1.3,4.9,2.1c-1.8,0.3-3.1,0.9-3.9,1.6c-0.5,0.3-0.9,0.7-1.1,1.1c-0.6,0.9-1.2,2.1-2,3.6
			c-0.7,1.5-1.8,3-3.3,4.5c-1.5,1.5-3.4,2.8-5.9,3.9c-2.5,1.1-5.8,1.8-9.9,2c-4.3,0.2-7.6-0.6-9.8-2.2c-2.2-1.6-3.9-3.5-4.9-5.7
			c-1-2.2-1.6-4.3-1.8-6.4c-0.2-2.1-0.3-3.5-0.4-4.3c-0.1-0.7-0.1-2.6,0-5.5c0.1-2.9,0.2-6.2,0.4-9.7c0.2-3.5,0.3-7,0.5-10.2
			c0.2-3.3,0.2-5.7,0.2-7.3c0-0.8,0-1.7,0.1-2.6c0-0.7,0-1.5,0.1-2.4c0-0.9,0.1-1.7,0.1-2.5l-17.7-0.1l-0.7-7l17.8,0.5
			c-0.2-0.9-0.3-1.7-0.5-2.5c-0.2-0.8-0.4-1.4-0.5-1.9c-0.2-0.6-0.5-1.1-0.7-1.5c-0.3-0.4-0.7-0.9-1.1-1.3c-0.4-0.4-0.9-0.9-1.6-1.6
			C246.4,104.4,245.6,103.6,244.7,102.8z"/>
		<path class="st0" d="M297.9,130.3c0.4-0.5,0.7-1.4,0.8-2.7s0.4-2.9,1-4.6c0.5-1.7,1.4-3.5,2.7-5.4c1.3-1.9,3.4-3.6,6.3-5.2
			c2.8-1.6,5.6-2.6,8.3-2.9c2.7-0.3,5.2-0.2,7.7,0.4c2.4,0.6,4.7,1.5,6.9,2.7c2.2,1.2,4.1,2.6,5.9,4c1.2,1,2.2,2.4,2.9,4.2
			c0.7,1.8,1.3,3.9,1.7,6.2c0.4,2.3,0.7,4.7,0.9,7.1c0.2,2.5,0.3,4.9,0.4,7.2c0.1,2.3,0.1,4.4,0.2,6.3c0,1.9,0.2,3.5,0.4,4.7
			c0.3,1.8,0.9,3.3,1.7,4.6c0.8,1.3,1.7,2.3,2.7,3.2c1,0.9,2,1.5,2.9,2c1,0.5,1.8,0.9,2.6,1.1c0.5,0.2,0.9,0.4,1.3,0.5
			c0.8,0.3,1.4,0.3,1.7,0c-0.5,1.1-0.9,2.1-1.3,2.9c-0.4,0.8-0.7,1.5-1,2.1c-0.3,0.7-0.6,1.2-0.9,1.6c-0.2,0.5-0.5,0.9-0.9,1.3
			c-0.2,0.4-0.6,0.9-1,1.3c-0.4,0.5-0.8,1-1.2,1.6c-1.1-0.4-2.1-0.9-3-1.5c-0.9-0.6-1.8-1.1-2.5-1.6c-0.9-0.6-1.7-1.1-2.4-1.7
			c-0.7-0.6-1.4-1.2-2.1-2c-0.6-0.6-1.2-1.3-1.8-2.1c-0.6-0.7-1.1-1.5-1.5-2.4c-0.5,1.1-1.6,2.6-3.5,4.5c-1.8,2-4.2,3.7-7.1,5.3
			c-2.9,1.6-6.3,2.7-10.2,3.4c-3.9,0.7-8.1,0.2-12.7-1.3c-2-0.7-3.9-1.6-5.7-2.9c-1.8-1.3-3.3-2.8-4.6-4.6c-1.3-1.8-2.2-3.8-2.7-6.2
			c-0.5-2.3-0.5-4.9,0.1-7.7c0.6-2.8,1.6-5.2,3-7.2c1.5-2,3.2-3.5,5.2-4.8c2-1.2,4.3-2.2,6.8-2.8c2.5-0.6,5.1-1.1,7.8-1.3
			c2.1-0.1,4.2,0,6.3,0.4c1.8,0.3,3.7,0.9,5.6,1.8c2,0.9,3.6,2.1,5,3.8c-0.1-4.3-0.2-7.7-0.4-10.3c-0.2-2.6-0.4-4.5-0.5-5.9
			c-0.3-1.6-0.6-2.8-0.9-3.4c-0.4-0.6-0.8-1.2-1.3-2c-0.4-0.7-1-1.4-1.6-2c-0.7-0.6-1.5-1.1-2.4-1.5c-1-0.4-2.1-0.6-3.4-0.5
			c-1.4,0.1-2.5,0.4-3.3,1.1c-0.8,0.7-1.4,1.4-1.9,2.3c-0.4,0.9-0.7,1.8-0.8,2.7c-0.1,1,0,1.8,0.1,2.6c0.2,0.5,0.4,1,0.7,1.6
			c0.3,0.5,0.8,1,1.3,1.6c0.6,0.6,1.3,1.1,2.3,1.5c-1.9,0.2-3.5,0.4-5,0.5s-2.7,0.3-3.8,0.4c-1.2,0.2-2.3,0.3-3.2,0.4
			c-0.9,0.1-2,0.2-3.2,0.5c-1.1,0.2-2.4,0.4-3.9,0.6c-1.5,0.2-3.3,0.6-5.4,1c0.5-0.6,0.9-1.1,1.3-1.6c0.4-0.5,0.8-1,1.1-1.4
			C297.3,131.1,297.6,130.7,297.9,130.3z M316.2,144.8c-1.5,0.1-2.9,0.4-4.4,1c-1.5,0.6-2.8,1.5-3.9,2.6c-1.1,1.1-2.1,2.4-2.9,3.8
			c-0.8,1.4-1.2,3-1.2,4.7c0,1.7,0.4,3.2,1.3,4.5c0.9,1.3,2,2.3,3.4,3.1c1.4,0.8,3,1.3,4.6,1.5c1.7,0.2,3.3,0,4.9-0.5
			c1.5-0.6,3-1.5,4.4-2.7c1.4-1.3,2.6-2.6,3.5-4.1c1-1.5,1.7-3,2.1-4.5c0.4-1.5,0.4-2.7,0.1-3.7c-0.7-2.1-2.1-3.6-4.4-4.5
			C321.6,145,319.1,144.6,316.2,144.8z"/>
		<path class="st0" d="M401.7,91.6c5.2-0.1,9.5,0.9,12.9,2.8c3.4,2,6.1,4.3,8.2,7c2.1,2.7,3.7,5.4,4.9,8.1c1.1,2.7,2,4.9,2.7,6.4
			c0.2,0.4,0.5,0.9,1,1.6c0.4,0.6,1,1.2,1.8,2c0.8,0.8,1.8,1.6,3,2.6c-2.5,0.1-4.8,0.1-6.7,0.2c-2,0-3.6,0.1-5,0.2
			c-1.5,0.1-2.9,0.2-4.1,0.2c-1.2,0.1-2.7,0.2-4.5,0.4c-1.6,0.2-3.6,0.3-6,0.5c-2.4,0.2-5.2,0.4-8.7,0.7c2-2.4,3.6-4.6,4.8-6.5
			c1.2-1.9,2.1-3.6,2.7-5.1c0.6-1.5,1-2.8,1.1-4c0.1-1.1,0.1-2.1-0.2-2.9c-0.5-1.9-1.8-3.2-3.8-4c-5.9-1.6-11-0.3-15.3,3.8
			c-4.4,4.2-7.5,11-9.3,20.6c-0.9,4.7-1.7,9.6-2.5,14.7c-0.8,5.1-1.1,9.7-0.9,13.9c0.2,4.2,1,7.6,2.4,10.2c1.5,2.6,4,3.8,7.6,3.7
			c3.5-0.2,6.5-0.8,8.9-1.8c2.4-1,4.4-2.2,5.9-3.7c1.5-1.4,2.5-3,3.1-4.6c0.6-1.7,0.8-3.2,0.7-4.7c-0.3-1.1-1.2-2.4-2.6-3.7
			c-1.2-1.1-3-2.4-5.5-3.8c-2.4-1.4-5.9-2.9-10.5-4.5c4.3-0.2,7.9-0.4,10.7-0.5s5-0.3,6.6-0.4c2-0.2,3.5-0.3,4.5-0.4
			c1-0.1,2.4-0.2,4.3-0.2c1.6-0.1,3.7-0.1,6.3-0.1s5.8,0,9.7-0.1c-1.5,1.5-2.6,2.8-3.4,4c-0.4,0.7-0.8,1.2-1.1,1.7
			c-0.3,0.8-0.4,2.5-0.4,5c0,2.1,0.2,5.2,0.5,9.3c0.3,4.1,0.9,9.7,1.8,16.8l-16.2,2.2l0.7-16.5c-1.9,4.5-4.2,7.8-7,10
			c-2.8,2.2-5.5,3.7-8,4.6c-3,1.1-6.1,1.5-9.4,1.5c-4.2-0.4-8.5-1.4-12.7-2.9c-4.2-1.5-8-3.9-11.2-7.1c-3.3-3.2-5.8-7.4-7.5-12.5
			c-1.8-5.1-2.3-11.5-1.6-19c0.7-7.6,2.5-14.2,5.4-19.8c2.9-5.7,6.5-10.3,10.8-14.1c4.3-3.7,9.2-6.6,14.6-8.5
			C390.5,92.8,396,91.8,401.7,91.6z"/>
		<path class="st0" d="M434.9,121.2c1.5,0.1,2.9,0.1,4.2,0.1c1.3,0,2.3-0.1,3.2-0.2c1.1-0.1,2-0.2,2.8-0.2c1.2-0.2,2.5-0.4,3.8-0.6
			c1.1-0.2,2.3-0.4,3.6-0.7c1.3-0.3,2.5-0.6,3.7-1c-0.5,1.2-0.9,2.3-1.2,3.2c-0.3,0.9-0.6,1.7-0.7,2.3c-0.2,0.7-0.4,1.3-0.4,1.8
			c-0.1,0.6-0.1,1.3-0.1,2.1c-0.1,1.4-0.1,3.6,0,6.7c4.2-3.7,7.8-6.5,10.7-8.5c2.9-2,5.2-3.6,6.9-4.8c2-1.3,3.6-2.2,4.8-2.6
			c3-0.5,5.7,0.2,7.9,2.1c1,0.8,1.9,1.9,2.8,3.2c0.9,1.3,1.7,3.1,2.3,5.3c0.7,2.2,1.1,4.8,1.5,7.9c0.3,3,0.4,6.7,0.1,10.9
			c-1.7,0.2-3.2,0.3-4.6,0.5c-1.3,0.2-2.5,0.3-3.4,0.4c-1.1,0.2-2,0.2-2.9,0.2l-3.3,0.4c-1.1,0.2-2.5,0.3-4.2,0.4
			c-1.7,0.1-3.7,0.3-6,0.5c3.4-2.8,5.6-5.2,6.6-7.3c1-2.1,1.4-3.8,1.3-5.2c-0.2-1.5-0.9-2.9-2.2-4c-1.5-0.9-3.2-1.2-5-1
			c-1.5,0.2-3.3,0.9-5.4,2.1c-2,1.2-4.2,3.5-6.5,6.8c0.2,5.2,0.3,9.5,0.5,12.9c0.2,3.4,0.4,6.2,0.5,8.3c0.2,2.4,0.4,4.4,0.6,5.7
			c0.2,1.2,0.7,2.5,1.5,3.9c0.6,1.1,1.4,2.4,2.4,3.8c1.1,1.4,2.4,2.8,4.1,4.1c-3.6-0.2-6.5-0.2-8.8,0c-1.4,0.1-2.6,0.2-3.7,0.2
			c-1.1,0.2-2.4,0.3-3.7,0.5c-1.1,0.2-2.5,0.3-4,0.5c-1.5,0.2-3.2,0.4-4.9,0.7c0.6-0.9,1.2-1.9,1.6-3.1c0.4-1.2,0.7-2.3,1-3.4
			c0.3-1.2,0.6-2.5,0.7-3.8c0.1-1.1,0.1-2.8,0.2-5.1c0-2.3,0-4.9-0.1-7.7c-0.1-2.9-0.3-5.9-0.4-9c-0.2-3.1-0.4-6.1-0.6-8.8
			c-0.2-2.8-0.5-5.2-0.8-7.3c-0.3-2.1-0.6-3.5-0.9-4.3c-0.4-1-0.9-2-1.5-2.9c-0.5-0.9-1.1-1.8-1.8-2.9
			C436.6,123.5,435.8,122.4,434.9,121.2z"/>
		<path class="st0" d="M505,130.3c0.4-0.5,0.7-1.4,0.8-2.7c0.1-1.3,0.4-2.9,1-4.6c0.5-1.7,1.4-3.5,2.7-5.4c1.3-1.9,3.4-3.6,6.3-5.2
			c2.8-1.6,5.6-2.6,8.3-2.9c2.7-0.3,5.2-0.2,7.7,0.4c2.4,0.6,4.7,1.5,6.9,2.7c2.2,1.2,4.1,2.6,5.9,4c1.2,1,2.2,2.4,2.9,4.2
			c0.7,1.8,1.3,3.9,1.7,6.2c0.4,2.3,0.7,4.7,0.9,7.1c0.2,2.5,0.3,4.9,0.4,7.2c0.1,2.3,0.1,4.4,0.2,6.3c0,1.9,0.2,3.5,0.4,4.7
			c0.3,1.8,0.9,3.3,1.7,4.6c0.8,1.3,1.7,2.3,2.7,3.2c1,0.9,2,1.5,2.9,2c1,0.5,1.8,0.9,2.6,1.1c0.5,0.2,0.9,0.4,1.3,0.5
			c0.8,0.3,1.4,0.3,1.7,0c-0.5,1.1-0.9,2.1-1.3,2.9c-0.4,0.8-0.7,1.5-1,2.1c-0.3,0.7-0.6,1.2-0.9,1.6c-0.2,0.5-0.5,0.9-0.9,1.3
			c-0.2,0.4-0.6,0.9-1,1.3c-0.4,0.5-0.8,1-1.2,1.6c-1.1-0.4-2.1-0.9-3-1.5c-0.9-0.6-1.8-1.1-2.5-1.6c-0.9-0.6-1.7-1.1-2.4-1.7
			c-0.7-0.6-1.4-1.2-2.1-2c-0.6-0.6-1.2-1.3-1.8-2.1c-0.6-0.7-1.1-1.5-1.5-2.4c-0.5,1.1-1.6,2.6-3.5,4.5c-1.8,2-4.2,3.7-7.1,5.3
			c-2.9,1.6-6.3,2.7-10.2,3.4c-3.9,0.7-8.1,0.2-12.7-1.3c-2-0.7-3.9-1.6-5.7-2.9c-1.8-1.3-3.3-2.8-4.6-4.6c-1.3-1.8-2.2-3.8-2.7-6.2
			c-0.5-2.3-0.5-4.9,0.1-7.7c0.6-2.8,1.6-5.2,3-7.2c1.5-2,3.2-3.5,5.2-4.8c2-1.2,4.3-2.2,6.8-2.8c2.5-0.6,5.1-1.1,7.8-1.3
			c2.1-0.1,4.2,0,6.3,0.4c1.8,0.3,3.7,0.9,5.6,1.8c2,0.9,3.6,2.1,5,3.8c-0.1-4.3-0.2-7.7-0.4-10.3c-0.2-2.6-0.4-4.5-0.5-5.9
			c-0.3-1.6-0.6-2.8-0.9-3.4c-0.4-0.6-0.8-1.2-1.3-2c-0.4-0.7-1-1.4-1.6-2c-0.7-0.6-1.5-1.1-2.4-1.5c-1-0.4-2.1-0.6-3.4-0.5
			c-1.4,0.1-2.5,0.4-3.3,1.1c-0.8,0.7-1.4,1.4-1.9,2.3c-0.4,0.9-0.7,1.8-0.8,2.7c-0.1,1,0,1.8,0.1,2.6c0.2,0.5,0.4,1,0.7,1.6
			c0.3,0.5,0.8,1,1.3,1.6c0.6,0.6,1.3,1.1,2.3,1.5c-1.9,0.2-3.5,0.4-5,0.5c-1.5,0.1-2.7,0.3-3.8,0.4c-1.2,0.2-2.3,0.3-3.2,0.4
			c-0.9,0.1-2,0.2-3.2,0.5c-1.1,0.2-2.4,0.4-3.9,0.6c-1.5,0.2-3.3,0.6-5.4,1c0.5-0.6,0.9-1.1,1.3-1.6c0.4-0.5,0.8-1,1.1-1.4
			C504.4,131.1,504.7,130.7,505,130.3z M523.3,144.8c-1.5,0.1-2.9,0.4-4.4,1c-1.5,0.6-2.8,1.5-3.9,2.6c-1.1,1.1-2.1,2.4-2.9,3.8
			c-0.8,1.4-1.2,3-1.2,4.7c0,1.7,0.4,3.2,1.3,4.5c0.9,1.3,2,2.3,3.4,3.1c1.4,0.8,3,1.3,4.6,1.5c1.7,0.2,3.3,0,4.9-0.5
			c1.5-0.6,3-1.5,4.4-2.7c1.4-1.3,2.6-2.6,3.5-4.1c1-1.5,1.7-3,2.1-4.5c0.4-1.5,0.4-2.7,0.1-3.7c-0.7-2.1-2.1-3.6-4.4-4.5
			C528.7,145,526.2,144.6,523.3,144.8z"/>
		<path class="st0" d="M562.4,121.9c1.9-0.2,3.5-0.3,4.8-0.5c1.3-0.2,2.5-0.3,3.4-0.5c1.1-0.2,2-0.3,2.7-0.5
			c0.7-0.1,1.5-0.2,2.4-0.5c0.8-0.2,1.7-0.4,2.7-0.7c1-0.3,2.1-0.6,3.4-1l-0.7,15.5c1.8-2.8,3.9-5,6.2-6.5c2.4-1.5,4.6-2.6,6.7-3.4
			c2.5-0.9,5-1.4,7.6-1.6c2.6,0.1,5,0.5,7.2,1.2c1.9,0.7,3.8,1.7,5.7,3c1.9,1.4,3.4,3.4,4.5,6.1c2.8-2.8,5.5-5.1,8.2-6.6
			c2.7-1.6,5.1-2.8,7.3-3.6c2.5-0.9,4.9-1.4,7.1-1.6c2.9-0.1,5.6,0.4,8.1,1.5c2.5,1.1,4.7,2.4,6.5,4c1.9,1.6,3.4,3.3,4.5,5
			c1.1,1.8,1.8,3.3,2,4.6c0.2,1.8,0.1,4.1-0.4,6.9s-1.1,5.7-1.7,8.5c-0.7,2.9-1.2,5.5-1.8,7.9c-0.5,2.4-0.8,4.1-0.7,5.1
			c0.2,0.8,0.8,1.8,1.7,2.9c0.8,1,2,2.2,3.6,3.6c1.6,1.4,3.9,3.1,6.9,4.9c-2.6-0.1-4.9-0.2-6.9-0.2c-2-0.1-3.7-0.2-5.1-0.4
			c-1.6-0.2-3-0.3-4.3-0.4c-1,0-2.2-0.1-3.5-0.2c-1.1-0.1-2.6-0.2-4.5-0.4c-1.8-0.2-3.9-0.3-6.3-0.5c0.9-0.2,1.6-0.7,2.2-1.4
			c0.6-0.7,1.1-1.4,1.5-2c0.4-0.8,0.7-1.7,1-2.7c0.2-0.8,0.3-2.1,0.5-3.9c0.2-1.8,0.3-3.8,0.4-6.1c0.1-2.3,0.2-4.7,0.2-7.2
			c0-2.5,0-4.9-0.1-7.2c-0.1-2.3-0.2-4.3-0.5-6.2c-0.2-1.9-0.6-3.3-1-4.3c-0.3-0.7-0.9-1.3-1.7-1.8c-0.8-0.4-1.7-0.7-2.8-0.9
			c-1.1-0.1-2.1-0.1-3.2,0.1c-1.1,0.2-2,0.5-2.8,1c-0.7,0.6-1.7,1.3-2.9,2.3c-1.1,0.9-2.4,2.1-4.1,3.7c-1.7,1.5-3.9,3.5-6.5,5.9
			c-0.2,5.1-0.4,9.3-0.5,12.4c-0.1,3.1-0.2,5.5-0.3,7.1c-0.1,2-0.1,3.3-0.1,4c-0.1,0.7,0,1.3,0.1,1.8c0.2,1.2,0.6,2.4,1.5,3.4
			c-1-0.2-2-0.4-3.1-0.5c-1.1-0.1-2.1-0.2-3-0.2c-1.1-0.1-2.1-0.1-3.2-0.1c-0.9,0-1.9,0-2.9,0.1c-0.9,0.1-2,0.2-3.3,0.3
			c-1.3,0.1-2.7,0.3-4.3,0.4c0.6-0.4,1.2-0.9,1.6-1.5c0.4-0.6,0.7-1.1,1-1.6c0.3-0.6,0.6-1.1,0.7-1.6c0.1-0.5,0.2-1.7,0.5-3.6
			c0.2-1.9,0.4-4.2,0.5-6.8c0.1-2.6,0.1-5.3,0-8.2c-0.1-2.9-0.4-5.5-0.9-7.9c-0.5-2.4-1.2-4.4-2.3-5.9c-1-1.5-2.3-2.2-4-2.1
			c-2,0.2-3.9,0.7-6,1.5c-1.7,0.7-3.5,1.6-5.5,2.9c-2,1.3-3.8,3-5.5,5.2c-0.3,6.1-0.5,10.9-0.5,14.5c0,3.6,0,6.3,0.1,8.2
			c0.1,2.2,0.2,3.7,0.2,4.5c0.1,0.6,0.3,1.1,0.6,1.7c0.2,0.5,0.5,1.1,0.9,1.7c0.4,0.7,0.8,1.3,1.3,1.8l-19.4-1
			c0.6-0.3,1.2-0.8,1.7-1.3c0.5-0.5,0.9-1.1,1.2-1.6c0.3-0.7,0.7-1.3,1-2c0.2-0.6,0.5-1.9,0.7-4c0.2-2.1,0.4-4.6,0.5-7.5
			c0.2-2.9,0.3-5.9,0.4-9.1c0.1-3.2,0.2-6.2,0.2-9c0-2.8,0.1-5.2,0.1-7.2c0-2,0-3.2-0.1-3.6c-0.2-0.8-0.7-1.7-1.3-2.6
			c-0.6-0.6-1.3-1.4-2.3-2.1C565.3,122.9,564,122.3,562.4,121.9z"/>
	</g>
</g>
</svg>
