<?xml version="1.0" encoding="utf-8"?>
<!-- Generator: Adobe Illustrator 21.0.0, SVG Export Plug-In . SVG Version: 6.00 Build 0)  -->
<svg version="1.1" id="Layer_1" xmlns="http://www.w3.org/2000/svg" xmlns:xlink="http://www.w3.org/1999/xlink" x="0px" y="0px"
	 width="136.7px" height="56px" viewBox="0 0 136.7 56" style="enable-background:new 0 0 136.7 56;" xml:space="preserve">
<style type="text/css">
	.st0{fill-rule:evenodd;clip-rule:evenodd;fill:#808080;}
	.st1{fill-rule:evenodd;clip-rule:evenodd;fill:#FFFFFF;}
</style>
<g>
	<path class="st0" d="M68.3,56c20,0,36.4-12.3,36.4-27.3c0-15-16.3-27.3-36.4-27.3C48.3,1.5,32,13.7,32,28.8
		C32,43.8,48.3,56,68.3,56z"/>
	<path class="st0" d="M48.2,6.6c-7.4-4.7-20.2-8.5-22.9-5.5c-2.7,3,2,15.5,7.4,22.4C38.5,30.8,56.2,11.7,48.2,6.6z"/>
	<path class="st0" d="M88.4,6.6c7.4-4.7,20.2-8.5,22.9-5.5c2.7,3-2,15.5-7.4,22.4C98,30.8,80.4,11.7,88.4,6.6z"/>
	<g>
		<path class="st1" d="M82.5,40.8c5.3,0,9.7-4.3,9.7-9.7c0-5.3-4.3-9.6-9.7-9.6c-5.3,0-9.7,4.3-9.7,9.6
			C72.8,36.4,77.1,40.8,82.5,40.8z"/>
		<ellipse class="st0" cx="82.5" cy="34.2" rx="1.4" ry="4.8"/>
		<path class="st1" d="M54.2,40.8c5.3,0,9.7-4.3,9.7-9.7c0-5.3-4.3-9.6-9.7-9.6s-9.7,4.3-9.7,9.6C44.5,36.4,48.9,40.8,54.2,40.8z"/>
		<ellipse class="st0" cx="54.2" cy="34.2" rx="1.4" ry="4.8"/>
	</g>
	<path class="st1" d="M68.3,47c-4,0-8.8-4.4,0-4.6C77.2,42.6,72.3,47,68.3,47z"/>
	<path class="st0" d="M28.8,34.4c-3.7,0-6.9,2-8.3,4.9c-0.1,0-0.3,0-0.4,0c-4.1,0-7.5,3-7.5,6.8c0,5.2,5.4,8.1,10.3,6.3
		c3,4.4,9.4,4.7,11.8,0c3.7-0.1,9.5-0.7,10.3-6.3c0.5-3.7-3.3-6.8-7.5-6.8c-0.1,0-0.3,0-0.4,0C35.7,36.5,32.5,34.4,28.8,34.4
		L28.8,34.4z M107.9,34.4c3.7,0,6.9,2,8.3,4.9c0.1,0-1.7,0,0.4,0c2.1,0,7.5,3,7.5,6.8c0,5.2-5.4,8.1-10.3,6.3c-3,4.4-9.4,4.7-11.8,0
		c-3.7-0.1-9.5-0.7-10.3-6.3c-0.5-3.7,5.3-6.8,7.5-6.8c2.1,0,0.3,0,0.4,0C101,36.5,104.2,34.4,107.9,34.4z"/>
	<g>
		<g>
			<path class="st0" d="M96.8,40.1c9.1-11.2,27.5-16.7,39.8-8.9C122.3,29.1,109.2,32.7,96.8,40.1z"/>
			<path class="st0" d="M96.3,37.4c5.1-12,20.2-19.8,32.4-15.6C115.9,23.4,105.6,28.5,96.3,37.4z"/>
			<path class="st0" d="M96,43.3c9.2-8.8,29.9-11.9,36.2-2.6C119.5,36.7,108.4,38.5,96,43.3z"/>
		</g>
		<g>
			<path class="st0" d="M39.8,40.1C30.8,28.9,12.4,23.4,0,31.2C14.4,29.1,27.5,32.7,39.8,40.1z"/>
			<path class="st0" d="M40.4,37.4C35.3,25.4,20.2,17.6,8,21.8C20.8,23.4,31.1,28.5,40.4,37.4z"/>
			<path class="st0" d="M40.6,43.3c-9.2-8.8-29.9-11.9-36.2-2.6C17.2,36.7,28.2,38.5,40.6,43.3z"/>
		</g>
	</g>
</g>
</svg>
