<?xml version="1.0" encoding="utf-8"?>
<!-- Generator: Adobe Illustrator 23.0.3, SVG Export Plug-In . SVG Version: 6.00 Build 0)  -->
<svg version="1.1" id="Layer_1" xmlns="http://www.w3.org/2000/svg" xmlns:xlink="http://www.w3.org/1999/xlink" x="0px" y="0px"
	 width="558.2px" height="113.5px" viewBox="0 0 558.2 113.5" style="enable-background:new 0 0 558.2 113.5;" xml:space="preserve"
	>
<style type="text/css">
	.st0{fill-rule:evenodd;clip-rule:evenodd;fill:#D6D6D6;}
	.st1{fill:#ED7591;}
	.st2{fill:#FCFAFB;}
</style>
<g>
	<g>
		<path class="st0" d="M256.5,19.9c-14-8.9-38.3-16.1-43.4-10.4c-5.1,5.7,3.8,29.4,14,42.4C238.2,65.8,271.7,29.6,256.5,19.9z"/>
		<path class="st0" d="M332.7,19.9c14-8.9,38.3-16.1,43.4-10.4c5.1,5.7-3.8,29.4-14,42.4C350.9,65.8,317.6,29.6,332.7,19.9z"/>
		<ellipse class="st0" cx="321.5" cy="72.2" rx="2.7" ry="9.1"/>
		<ellipse class="st0" cx="267.9" cy="72.2" rx="2.7" ry="9.1"/>
		<path class="st0" d="M294.6,10.1c-37.9,0.2-68.8,23.3-68.8,51.9c0,28.4,30.9,51.5,68.8,51.5s69-23.3,69-51.7
			S332.7,10.1,294.6,10.1z M267.9,84.7c-10,0-18.4-8.3-18.4-18.4s8.1-18.2,18.4-18.2c10.2,0,18.4,8.1,18.4,18.2
			C286.3,76.6,278,84.7,267.9,84.7z M294.6,96.5c-7.6,0-16.7-8.3,0-8.7C311.5,88.1,302.2,96.5,294.6,96.5z M321.5,84.7
			c-10.2,0-18.4-8.3-18.4-18.4s8.3-18.2,18.4-18.2c10.2,0,18.4,8.1,18.4,18.2C339.9,76.6,331.6,84.7,321.5,84.7z"/>
		<path class="st0" d="M219.8,72.6c-7,0-13.1,3.8-15.7,9.3c-0.2,0-0.6,0-0.8,0c-7.8,0-14.2,5.7-14.2,12.9c0,9.9,10.2,15.3,19.5,11.9
			c5.7,8.3,17.8,8.9,22.4,0c7-0.2,18-1.3,19.5-11.9c0.9-7-6.3-12.9-14.2-12.9c-0.2,0-0.6,0-0.8,0C232.9,76.6,226.8,72.6,219.8,72.6
			L219.8,72.6z M369.7,72.6c7,0,13.1,3.8,15.7,9.3c0.2,0-3.2,0,0.8,0c4,0,14.2,5.7,14.2,12.9c0,9.9-10.2,15.3-19.5,11.9
			c-5.7,8.3-17.8,8.9-22.4,0c-7-0.2-18-1.3-19.5-11.9c-0.9-7,10-12.9,14.2-12.9c4,0,0.6,0,0.8,0C356.6,76.6,362.7,72.6,369.7,72.6z"
			/>
		<g>
			<g>
				<path class="st0" d="M348.6,83.4c17.2-21.2,52.1-31.6,75.4-16.9C397,62.5,372.1,69.4,348.6,83.4z"/>
				<path class="st0" d="M347.7,78.3c9.7-22.7,38.3-37.5,61.4-29.6C384.8,51.7,365.3,61.4,347.7,78.3z"/>
				<path class="st0" d="M347.1,89.5c17.4-16.7,56.7-22.6,68.6-4.9C391.7,76.9,370.6,80.4,347.1,89.5z"/>
			</g>
			<g>
				<path class="st0" d="M240.6,83.4c-17.1-21.2-51.9-31.6-75.4-16.9C192.5,62.5,217.3,69.4,240.6,83.4z"/>
				<path class="st0" d="M241.8,78.3c-9.7-22.7-38.3-37.5-61.4-29.6C204.6,51.7,224.1,61.4,241.8,78.3z"/>
				<path class="st0" d="M242.1,89.5c-17.4-16.7-56.7-22.6-68.6-4.9C197.8,76.9,218.6,80.4,242.1,89.5z"/>
			</g>
		</g>
	</g>
	<g>
		<g>
			<path class="st1" d="M20,109.5c-2.3,0-4.8-1-7.7-3.2c-2.9-2.1-4.9-4.5-6.1-7c-1.2-2.6-2.3-10.1-3.4-23
				C1.6,63.7,1.1,52.5,1.1,42.9c0-12.2,0.4-15.7,0.8-17.1c-0.3-1.5-0.4-2.9-0.4-4.2c0-5.6,2.1-10.1,6.1-13.3c4-3.1,8.9-4.7,14.7-4.7
				c1.7,0,3.5,0.5,5.5,1.6C29.9,6.3,31,7.8,31,9.6c0,0.6-0.2,2.6-3.2,2.6c-0.7,0-1.4-0.3-2.3-1c-0.7-0.6-1-0.6-1.1-0.6
				c-0.3,0-0.7,0.1-1.1,0.2L23,10.9l-0.3-0.1c-0.9-0.3-1.9-0.5-2.8-0.5c-1,0-2.2,0.2-3.6,0.6c-1.4,0.4-2.6,1-3.5,1.6
				c-0.9,0.6-1.7,1.5-2.3,2.6c-0.7,1.1-1.2,2.2-1.6,3.3c-0.4,1-0.6,2.4-0.9,4c-0.3,2.4-0.4,5.4-0.4,9L8,40.9l-1.2,9.6
				c0,5.2,0.6,14,1.7,26.1c1.4,15,2.6,19.5,3.4,20.7c2.1,3.3,5.3,4.9,9.6,4.9c4.3,0,7.5-1.2,9.4-3.5l0.3-0.4h0.5
				c0.7,0,1.7-0.1,2.8-0.4l0.6-0.2l1.4,1.5v0.4c0,4.8-3.7,8-11,9.4C23.9,109.3,22,109.5,20,109.5z"/>
			<path class="st2" d="M22.3,4.7c1.5,0,3.2,0.5,5,1.4c1.8,1,2.7,2.1,2.7,3.5c0,1-0.7,1.5-2.1,1.5c-0.4,0-0.9-0.3-1.6-0.8
				c-0.7-0.5-1.3-0.8-1.7-0.8c-0.5,0-0.9,0.1-1.5,0.3c-1-0.3-2.1-0.5-3.2-0.5c-1.1,0-2.4,0.2-3.9,0.7c-1.5,0.5-2.8,1-3.8,1.8
				c-1,0.7-1.9,1.7-2.6,2.9c-0.7,1.2-1.3,2.4-1.7,3.5c-0.4,1.1-0.7,2.5-0.9,4.3c-0.3,2.5-0.4,5.5-0.4,9.2L7,40.8l-1.2,9.6
				c0,5.2,0.6,14,1.8,26.2C8.7,88.9,9.9,96,11.1,97.8c2.3,3.6,5.8,5.4,10.5,5.4c4.7,0,8.1-1.3,10.2-3.8c0.8,0,1.8-0.2,3.1-0.5
				l0.6,0.7c0,4.2-3.4,7-10.1,8.3c-1.6,0.3-3.4,0.5-5.4,0.5s-4.4-1-7.1-3c-2.7-2-4.7-4.2-5.8-6.6c-1.1-2.4-2.2-10-3.3-22.6
				C2.7,63.6,2.1,52.5,2.1,42.9s0.3-15.3,0.8-17c-0.3-1.5-0.5-2.9-0.5-4.3c0-5.3,1.9-9.5,5.7-12.4C12.1,6.2,16.7,4.7,22.3,4.7
				 M22.3,2.5c-6,0-11.2,1.6-15.3,4.9c-4.3,3.4-6.5,8.1-6.5,14.1c0,1.3,0.1,2.7,0.4,4.2C0.4,27.5,0,31.3,0,42.9
				c0,9.6,0.5,20.9,1.6,33.5C3.1,93.7,4.3,98,5.1,99.7c1.3,2.7,3.4,5.3,6.5,7.5c3.1,2.3,5.9,3.4,8.4,3.4c2.1,0,4.1-0.2,5.8-0.5
				c5.4-1,11.9-3.7,11.9-10.4v-0.8l-0.6-0.6l-0.6-0.7l-0.9-1l-1.2,0.3c-1,0.3-1.9,0.4-2.5,0.4h-1L30.2,98c-1.8,2.1-4.6,3.1-8.6,3.1
				c-3.9,0-6.8-1.4-8.7-4.4c-0.5-0.7-1.7-4.1-3.2-20.2c-1.1-12-1.7-20.7-1.7-25.9l1.2-9.5l0-0.2l0-0.2l-0.4-9.4
				c0-3.5,0.1-6.5,0.4-8.9c0.2-1.5,0.5-2.8,0.8-3.8c0.3-1,0.8-2,1.5-3.1c0.6-0.9,1.2-1.7,2-2.2c0.8-0.6,1.9-1.1,3.2-1.5
				c1.3-0.4,2.4-0.6,3.3-0.6c0.8,0,1.7,0.1,2.5,0.4L23,12l0.7-0.2c0.2-0.1,0.5-0.1,0.7-0.1c0.1,0,0.3,0.1,0.5,0.4
				c1.1,0.9,2,1.3,2.9,1.3c3.1,0,4.2-2,4.2-3.6c0-1.5-0.7-3.7-3.8-5.4C26.1,3.1,24.1,2.5,22.3,2.5L22.3,2.5z"/>
		</g>
		<g>
			<path class="st1" d="M77,108.5c-2.2,0-3.5-0.4-4.2-1.2c-0.6-0.7-0.8-1.8-0.8-3.2c0-1.1-0.1-2.5-0.2-4.1c-0.2-1.6-0.3-3-0.4-3.9
				c-0.2-1-0.4-2.6-0.8-4.7c-0.3-1.5-0.5-2.7-0.6-3.4c-1.5-0.3-3.1-0.5-5-0.5l-3.7,0.1L61,87.6c-1.1-0.5-2.4-0.7-3.7-0.7
				c-0.9,0-1.4,0-1.7,0c0,0.1,0,0.1-0.1,0.2l-0.2,2.5c-0.2,2.3-0.6,5-1.3,8.2c-1.4,7.2-2.8,10.1-4.9,10.1c-0.8,0-1.6-0.3-2.4-0.9
				c-1.1-0.9-1.3-1.8-1.3-2.4v-0.2l0.1-0.2c1.1-3.3,2.3-8.3,3.5-15c1.2-6.8,2-11,2.3-12.6c0.3-1.7,0.9-5.1,1.7-10.1l1.6-10
				c0.3-1.6,1-5.1,2.1-10.4c1.1-5.3,1.8-8.8,2.1-10.4c0.2-1.6,0.5-3.9,0.8-6.6c1-9.3,1.5-11.3,1.9-12l0.3-0.6l2.5,0.2
				c0.7,0,1.3-0.2,1.6-0.5L66,16h0.4c0.8,0,1.5,0.3,2.2,0.8c0.8,0.6,1.2,1.4,1.2,2.3c0,4.2,0.5,12.4,1.6,24.5
				c1.1,12.1,1.9,20,2.6,23.5c0.6,3.5,1.3,7,2.2,10.5c0.8,3.6,1.3,6.2,1.3,8.1v0.2l-0.6,1.8c0,1.9,0.4,4.7,1.1,8.4
				c0.8,4,1.1,6.7,1.1,8.4c0,2-0.5,3.3-1.6,3.9l-0.2,0.1H77z M65.2,35.4c-3.7,18.1-6,29.6-7,34.3c-1.1,5.3-1.6,8.7-1.6,10.3
				c0,0.1,0.4,0.7,2.4,1.2c3.1,0.9,6.6,1.3,10.4,1.3C69.1,81,69,79.4,69,77.6v-3c0-5.4-0.7-13.5-2-23.9
				C66.2,44.7,65.6,39.6,65.2,35.4z"/>
			<path class="st2" d="M66.5,17.1c0.6,0,1.1,0.2,1.6,0.6c0.5,0.4,0.8,0.9,0.8,1.5c0,4.2,0.5,12.4,1.6,24.6
				c1.1,12.2,1.9,20,2.6,23.6c0.6,3.6,1.4,7.1,2.2,10.5c0.8,3.4,1.2,6.1,1.2,7.9l-0.6,1.8c0,2,0.4,4.9,1.1,8.8
				c0.7,3.9,1.1,6.6,1.1,8.2c0,1.6-0.3,2.6-1,3c-1.8,0-2.9-0.3-3.3-0.8c-0.4-0.5-0.6-1.4-0.6-2.5c0-1.1-0.1-2.6-0.2-4.2
				c-0.2-1.7-0.3-3-0.5-4c-0.2-1-0.4-2.6-0.8-4.7c-0.4-2.1-0.6-3.5-0.7-4.1c-1.7-0.4-3.7-0.6-6-0.6l-3.5,0.1
				c-1.3-0.5-2.6-0.8-4.2-0.8c-1.5,0-2.3,0-2.5,0.1c-0.1,0.1-0.2,0.2-0.3,0.5c0,0.2-0.1,0.4-0.1,0.5l-0.3,2.7
				c-0.2,2.3-0.6,5-1.2,8.1c-1.2,6.2-2.5,9.3-3.8,9.3c-0.6,0-1.1-0.2-1.8-0.7c-0.6-0.5-0.9-1-0.9-1.6c1.1-3.3,2.3-8.4,3.5-15.1
				c1.2-6.8,2-11,2.3-12.6c0.3-1.7,0.9-5,1.7-10.1c0.8-5.1,1.4-8.4,1.6-10c0.3-1.6,1-5.1,2.1-10.4c1.1-5.3,1.8-8.8,2.1-10.5
				c0.2-1.6,0.5-3.9,0.8-6.7c0.7-6.9,1.3-10.8,1.8-11.6l1.8,0.1C65.2,17.9,66,17.6,66.5,17.1 M69.5,83.6h1.4c-0.6-1.7-0.8-3.7-0.8-6
				v-3c0-5.5-0.7-13.5-2-24C66.6,40,65.9,32.2,65.8,27c-4.6,22.9-7.5,37-8.6,42.4c-1.1,5.4-1.7,8.9-1.7,10.5c0,0.9,1.1,1.7,3.2,2.3
				C62,83.1,65.6,83.6,69.5,83.6 M66.5,14.9h-0.9L65,15.6c0,0-0.2,0.1-0.8,0.2l-1.7-0.1l-1.4-0.1l-0.7,1.2c-0.4,0.8-1,2.4-2,12.4
				c-0.3,2.8-0.6,5-0.8,6.6c-0.2,1.6-0.9,5-2.1,10.3c-1.1,5.3-1.9,8.8-2.1,10.5L53,58.8l-1.2,7.7c-0.8,5-1.4,8.4-1.7,10.1
				c-0.3,1.7-1.1,5.9-2.3,12.6c-1.2,6.6-2.3,11.6-3.4,14.8l-0.1,0.3v0.4c0,0.9,0.3,2.1,1.7,3.2c1,0.8,2,1.2,3.1,1.2
				c2.8,0,4.4-3,5.9-11c0.7-3.2,1.1-6,1.3-8.4l0.2-1.7c0.2,0,0.5,0,0.8,0c1.2,0,2.3,0.2,3.3,0.6l0.4,0.2l0.5,0l3.5-0.1
				c1.5,0,2.8,0.1,4,0.3c0.1,0.7,0.3,1.6,0.5,2.7c0.4,2.1,0.6,3.6,0.8,4.7c0.1,0.9,0.3,2.2,0.4,3.9c0.1,1.6,0.2,3,0.2,4
				c0,1.7,0.4,2.9,1.1,3.8c1.1,1.4,3.3,1.6,5,1.6h0.6l0.5-0.3c1.4-0.8,2.1-2.4,2.1-4.8c0-1.7-0.4-4.5-1.1-8.6c-0.7-3.5-1-6.2-1.1-8
				l0.5-1.5l0.1-0.4v-0.4c0-2-0.4-4.7-1.3-8.4c-0.8-3.4-1.5-6.9-2.1-10.4c-0.6-3.5-1.5-11.4-2.5-23.4c-1.1-12-1.6-20.3-1.6-24.4
				c0-1.3-0.6-2.4-1.7-3.2C68.5,15.3,67.5,14.9,66.5,14.9L66.5,14.9z M57.7,79.5c0.1-1.2,0.4-3.9,1.6-9.6c0.8-4,2.6-12.8,5.5-27.3
				c0.3,2.5,0.6,5.3,1,8.2c1.3,10.4,2,18.4,2,23.7v3c0,1.3,0.1,2.6,0.3,3.8c-3.2-0.1-6.2-0.5-8.9-1.3C58.4,79.9,58,79.6,57.7,79.5
				L57.7,79.5z"/>
		</g>
		<g>
			<path class="st1" d="M105.2,106.6L103,105l-0.3-10.2L103,90c0-1-0.2-2-0.5-2.7l-0.1-0.2v-0.2c0-7.5-0.5-18.5-1.6-32.8
				c-1-13.7-1.6-24.1-1.7-31C92.1,23,88.7,22,88,19.8l-0.1-0.3l0.1-0.3c0.3-0.8,1.2-2.2,3.5-2.2l18.1,1.2c0,0,2.3-0.1,2.3-0.1
				c3.2,0,3.5,1.9,3.5,2.8c0,0.7-0.3,1.7-1.5,2.4c-0.8,0.5-1.7,0.8-2.5,0.8h-0.1l-6.4-0.8l0.1,0.1l-0.2,0.4
				c-0.1,0.3-0.2,1.7-0.2,7.2c0,4.7,0.7,15.8,2.2,33c1.5,17.3,2.2,30.4,2.2,39.1c0,0.9-0.4,1.8-1.1,2.5c-0.7,0.7-1.6,1.1-2.5,1.1
				H105.2z"/>
			<path class="st2" d="M91.6,18l18,1.2l2.4-0.1c1.6,0,2.4,0.6,2.4,1.7c0,0.6-0.3,1.1-1,1.5c-0.6,0.4-1.3,0.6-1.9,0.6l-7.2-0.9
				l-0.6,0.8l0.3,0.5c-0.2,0.3-0.3,2.9-0.3,7.6s0.7,15.7,2.2,33.1c1.5,17.3,2.2,30.3,2.2,39c0,0.6-0.3,1.2-0.8,1.8
				c-0.5,0.5-1.1,0.8-1.8,0.8l-1.5-1.1l-0.3-9.7l0.3-4.7c0-1.2-0.2-2.3-0.5-3.2c0-7.5-0.5-18.5-1.6-32.9
				c-1.1-14.4-1.6-25.1-1.7-31.9c-7,0-10.7-0.8-11.2-2.5C89.5,18.5,90.3,18,91.6,18 M91.7,15.8L91.7,15.8c-2.2,0-3.9,1-4.6,2.9
				l-0.3,0.7l0.2,0.7c0.7,2.7,4,3.9,11.1,4.1c0.2,6.9,0.7,17,1.7,30c1.1,14.3,1.6,25.3,1.6,32.8v0.4l0.1,0.4
				c0.2,0.6,0.4,1.4,0.4,2.4l-0.3,4.6l0,0.1l0,0.1l0.3,9.7l0,1l0.8,0.6l1.5,1.1l0.6,0.4h0.7c1.2,0,2.4-0.5,3.3-1.4
				c0.9-0.9,1.4-2,1.4-3.3c0-8.7-0.7-21.9-2.2-39.2c-1.5-17.2-2.2-28.3-2.2-32.9c0-4.1,0.1-5.8,0.1-6.5l5.3,0.7l0.1,0h0.1
				c1.1,0,2.1-0.3,3.1-1c1.7-1.1,2-2.6,2-3.3c0-1.9-1.2-3.8-4.5-3.8H112l-0.1,0l-2.3,0.1L91.7,15.8L91.7,15.8L91.7,15.8z"/>
		</g>
		<g>
			<path class="st1" d="M129.6,109c-3.1-0.6-4.8-2-5.2-4.1l-0.1-0.4l1.2-2l5.4,1c1.7,0,3.1-0.7,4.4-2c1.4-1.5,2.4-3.3,3.1-5.6
				c1.3-4.4,1.9-8.5,1.9-12.2c0-3.7-0.5-7.2-1.6-10.5c-1.1-3.3-2.4-6.4-3.9-9.1l-4.7-8.4c-3.8-6.9-5.8-13.8-5.8-20.6
				c0-3.5,0.6-6.9,1.9-10.1c2.4-6.1,5.6-9.2,9.7-9.2c1.2,0,2.5,0.4,3.9,1.3c1.5,1,2.3,2.1,2.3,3.5c0,0.5-0.2,2.1-2.8,2.1h-0.1
				l-2.8-0.8c-1,0-1.9,0.5-2.7,1.3c-0.9,1-1.6,2.2-2.1,3.7c-1,3.1-1.6,5.5-1.6,7.2c0,1.8,0,3,0.1,3.8c0.1,0.7,0.2,1.6,0.5,2.6
				c0.2,1.1,0.4,1.8,0.5,2.2c0.1,0.3,0.2,1,0.7,2.6c0.4,1.2,0.6,2,0.7,2.3l0.9,2.3c0.9,1.5,2,3.5,3.3,5.8c1.4,2.4,2.4,4.2,3.1,5.4
				c0.7,1.3,1.5,2.9,2.4,4.9c0.9,2,1.6,3.9,2,5.6c1.1,4.2,1.7,8,1.7,11.3c0,3.3-0.1,6-0.4,8c-0.3,2-0.8,4.1-1.5,6.3
				c-0.7,2.2-1.7,4.1-2.8,5.7c-2.5,3.9-6.1,5.9-10.6,5.9L130,109L129.6,109z"/>
			<path class="st2" d="M136.1,16.8c1,0,2.1,0.4,3.3,1.1c1.2,0.8,1.8,1.6,1.8,2.6c0,0.7-0.6,1-1.8,1l-2.8-0.8
				c-1.4,0-2.6,0.6-3.6,1.7c-1,1.1-1.8,2.5-2.3,4.1c-1.1,3.2-1.6,5.7-1.6,7.5s0,3.1,0.1,3.9c0.1,0.8,0.2,1.7,0.5,2.7
				c0.2,1,0.4,1.8,0.5,2.2c0.1,0.4,0.3,1.3,0.7,2.7c0.4,1.4,0.6,2.1,0.7,2.3l1,2.4c0.9,1.6,2,3.5,3.4,5.9c1.4,2.4,2.4,4.1,3.1,5.4
				c0.7,1.2,1.5,2.8,2.4,4.8c0.9,2,1.6,3.8,1.9,5.4c1.1,4.1,1.6,7.8,1.6,11.1c0,3.3-0.1,5.9-0.4,7.9c-0.3,2-0.7,4-1.5,6.1
				c-0.7,2.1-1.6,3.9-2.6,5.5c-2.4,3.6-5.7,5.5-10,5.5l-0.6,0.3c-2.6-0.5-4-1.6-4.3-3.2l0.6-1l4.8,0.9c2,0,3.8-0.8,5.3-2.4
				c1.5-1.6,2.6-3.6,3.3-6c1.3-4.5,1.9-8.7,1.9-12.5c0-3.8-0.6-7.4-1.7-10.8c-1.1-3.4-2.4-6.5-4-9.3c-1.6-2.8-3.1-5.6-4.7-8.4
				c-3.8-6.8-5.6-13.5-5.6-20.1c0-3.4,0.6-6.6,1.8-9.7C129.6,19.7,132.5,16.8,136.1,16.8 M140.3,21.2h0.1c0-0.1,0-0.1-0.1-0.1V21.2
				 M136.1,14.7c-4.5,0-8.1,3.3-10.7,9.9c-1.3,3.3-2,6.8-2,10.5c0,6.9,2,14,5.9,21.1l3.2,5.8l1.4,2.6c1.5,2.7,2.8,5.7,3.8,8.9
				c1,3.2,1.5,6.6,1.5,10.2c0,3.6-0.6,7.6-1.9,11.9c-0.6,2.1-1.6,3.8-2.8,5.1c-1,1.1-2.1,1.6-3.5,1.7l-4.6-0.9l-1.4-0.3l-0.8,1.2
				l-0.6,1l-0.4,0.7l0.1,0.8c0.3,1.8,1.6,4.2,6,5l0.7,0.1l0.6-0.3l0.2-0.1c4.8-0.1,8.6-2.3,11.3-6.4c1.1-1.7,2.1-3.7,2.9-5.9
				c0.8-2.2,1.3-4.4,1.6-6.5c0.3-2,0.4-4.8,0.4-8.1c0-3.4-0.6-7.3-1.7-11.6c-0.4-1.7-1.1-3.6-2.1-5.7c-0.9-2-1.8-3.7-2.5-4.9
				c-0.7-1.2-1.7-3-3.1-5.4c-1.3-2.3-2.4-4.2-3.3-5.7l-0.9-2.2c-0.1-0.2-0.2-0.8-0.7-2.2c-0.5-1.7-0.7-2.3-0.7-2.5
				c-0.1-0.5-0.3-1.2-0.5-2.3c-0.2-1-0.4-1.8-0.4-2.5c-0.1-0.7-0.1-1.9-0.1-3.7c0-1.6,0.5-3.9,1.5-6.8c0.4-1.4,1.1-2.5,1.9-3.3
				c0.6-0.6,1.1-0.9,1.8-1l2.5,0.7l0.3,0.1h0.3c2.9,0,3.9-1.7,3.9-3.2c0-1.2-0.5-2.9-2.8-4.4C139,15.2,137.5,14.7,136.1,14.7
				L136.1,14.7z"/>
		</g>
		<g>
			<path class="st1" d="M172.3,106.6l-2.2-1.6l-0.3-10.2l0.3-4.8c0-1-0.2-2-0.5-2.7l-0.1-0.2v-0.2c0-7.5-0.5-18.5-1.6-32.8
				c-1-13.7-1.6-24.1-1.7-31c-7.1-0.1-10.5-1.1-11.1-3.3l-0.1-0.3l0.1-0.3c0.3-0.8,1.2-2.2,3.5-2.2l18.1,1.2c0,0,2.3-0.1,2.3-0.1
				c3.2,0,3.5,1.9,3.5,2.8c0,0.7-0.3,1.7-1.5,2.4c-0.8,0.5-1.7,0.8-2.5,0.8h-0.1l-6.4-0.8l0.1,0.1l-0.2,0.4
				c-0.1,0.3-0.2,1.7-0.2,7.2c0,4.7,0.7,15.8,2.2,33c1.5,17.3,2.2,30.4,2.2,39.1c0,0.9-0.4,1.8-1.1,2.5c-0.7,0.7-1.6,1.1-2.5,1.1
				H172.3z"/>
			<path class="st2" d="M158.7,18l18,1.2l2.4-0.1c1.6,0,2.4,0.6,2.4,1.7c0,0.6-0.3,1.1-1,1.5c-0.6,0.4-1.3,0.6-1.9,0.6l-7.2-0.9
				l-0.6,0.8l0.3,0.5c-0.2,0.3-0.3,2.9-0.3,7.6s0.7,15.7,2.2,33.1c1.5,17.3,2.2,30.3,2.2,39c0,0.6-0.3,1.2-0.8,1.8
				c-0.5,0.5-1.1,0.8-1.8,0.8l-1.5-1.1l-0.3-9.7l0.3-4.7c0-1.2-0.2-2.3-0.5-3.2c0-7.5-0.5-18.5-1.6-32.9
				c-1.1-14.4-1.6-25.1-1.7-31.9c-7,0-10.7-0.8-11.2-2.5C156.5,18.5,157.4,18,158.7,18 M158.7,15.8L158.7,15.8c-2.2,0-3.9,1-4.6,2.9
				l-0.3,0.7l0.2,0.7c0.7,2.7,4,3.9,11.1,4.1c0.2,6.9,0.7,17,1.7,30c1.1,14.3,1.6,25.3,1.6,32.8v0.4l0.1,0.4
				c0.2,0.6,0.4,1.4,0.4,2.4l-0.3,4.6l0,0.1l0,0.1l0.3,9.7l0,1l0.8,0.6l1.5,1.1l0.6,0.4h0.7c1.2,0,2.4-0.5,3.3-1.4
				c0.9-0.9,1.4-2,1.4-3.3c0-8.7-0.7-21.9-2.2-39.2c-1.5-17.2-2.2-28.3-2.2-32.9c0-4.1,0.1-5.8,0.1-6.5l5.3,0.7l0.1,0h0.1
				c1.1,0,2.1-0.3,3.1-1c1.7-1.1,2-2.6,2-3.3c0-1.9-1.2-3.8-4.5-3.8h-0.1l-0.1,0l-2.3,0.1L158.7,15.8L158.7,15.8L158.7,15.8z"/>
		</g>
		<g>
			<path class="st1" d="M222.7,108.5c-2.2,0-3.5-0.4-4.2-1.2c-0.6-0.7-0.8-1.8-0.8-3.2c0-1.1-0.1-2.5-0.2-4.1
				c-0.2-1.6-0.3-3-0.4-3.9c-0.2-1-0.4-2.6-0.8-4.7c-0.3-1.5-0.5-2.7-0.6-3.4c-1.5-0.3-3.1-0.5-5-0.5l-3.7,0.1l-0.2-0.1
				c-1.1-0.5-2.4-0.7-3.7-0.7c-0.9,0-1.4,0-1.7,0c0,0.1,0,0.1-0.1,0.2l-0.2,2.5c-0.2,2.3-0.6,5-1.3,8.2c-1.4,7.2-2.8,10.1-4.9,10.1
				c-0.8,0-1.6-0.3-2.4-0.9c-1.1-0.9-1.3-1.8-1.3-2.4v-0.2l0.1-0.2c1.1-3.3,2.3-8.3,3.5-15c1.2-6.8,2-11,2.3-12.6
				c0.3-1.7,0.9-5.1,1.7-10.1l1.6-10c0.3-1.6,1-5.1,2.1-10.4c1.1-5.3,1.8-8.8,2.1-10.4c0.2-1.6,0.5-3.9,0.8-6.6
				c1-9.3,1.5-11.3,1.9-12l0.3-0.6l2.5,0.2c0.7,0,1.3-0.2,1.6-0.5l0.3-0.3h0.4c0.8,0,1.5,0.3,2.2,0.8c0.8,0.6,1.2,1.4,1.2,2.3
				c0,4.2,0.5,12.4,1.6,24.5c1.1,12.1,1.9,20,2.6,23.5c0.6,3.5,1.3,7,2.2,10.5c0.9,3.6,1.3,6.2,1.3,8.1v0.2l-0.6,1.8
				c0,1.9,0.4,4.7,1.1,8.4c0.8,4,1.1,6.7,1.1,8.4c0,2-0.5,3.3-1.6,3.9l-0.2,0.1H222.7z M210.9,35.4c-3.7,18.2-6,29.6-7,34.3
				c-1.1,5.3-1.6,8.7-1.6,10.3c0,0.1,0.4,0.7,2.4,1.2c3.1,0.9,6.6,1.3,10.4,1.3c-0.3-1.5-0.5-3.1-0.5-4.9v-3c0-5.4-0.7-13.5-2-23.9
				C211.9,44.7,211.3,39.6,210.9,35.4z"/>
			<path class="st2" d="M212.2,17.1c0.6,0,1.1,0.2,1.6,0.6c0.5,0.4,0.8,0.9,0.8,1.5c0,4.2,0.5,12.4,1.6,24.6
				c1.1,12.2,1.9,20,2.6,23.6c0.6,3.6,1.4,7.1,2.2,10.5c0.8,3.4,1.2,6.1,1.2,7.9l-0.6,1.8c0,2,0.4,4.9,1.1,8.8
				c0.7,3.9,1.1,6.6,1.1,8.2c0,1.6-0.3,2.6-1,3c-1.8,0-2.9-0.3-3.3-0.8c-0.4-0.5-0.6-1.4-0.6-2.5c0-1.1-0.1-2.6-0.2-4.2
				c-0.2-1.7-0.3-3-0.5-4c-0.2-1-0.4-2.6-0.8-4.7c-0.4-2.1-0.6-3.5-0.7-4.1c-1.7-0.4-3.7-0.6-6-0.6l-3.5,0.1
				c-1.3-0.5-2.6-0.8-4.2-0.8c-1.5,0-2.3,0-2.5,0.1c-0.1,0.1-0.2,0.2-0.3,0.5c0,0.2-0.1,0.4-0.1,0.5l-0.3,2.7
				c-0.2,2.3-0.6,5-1.2,8.1c-1.2,6.2-2.5,9.3-3.8,9.3c-0.6,0-1.1-0.2-1.8-0.7c-0.6-0.5-0.9-1-0.9-1.6c1.1-3.3,2.3-8.4,3.5-15.1
				c1.2-6.8,2-11,2.3-12.6c0.3-1.7,0.9-5,1.7-10.1c0.8-5.1,1.4-8.4,1.6-10c0.3-1.6,1-5.1,2.1-10.4c1.1-5.3,1.8-8.8,2.1-10.5
				c0.2-1.6,0.5-3.9,0.8-6.7c0.7-6.9,1.3-10.8,1.8-11.6l1.8,0.1C210.8,17.9,211.6,17.6,212.2,17.1 M215.2,83.6h1.4
				c-0.6-1.7-0.8-3.7-0.8-6v-3c0-5.5-0.7-13.5-2-24c-1.4-10.5-2.1-18.3-2.2-23.5c-4.6,22.9-7.5,37-8.6,42.4
				c-1.1,5.4-1.7,8.9-1.7,10.5c0,0.9,1.1,1.7,3.2,2.3C207.7,83.1,211.3,83.6,215.2,83.6 M212.2,14.9h-0.9l-0.6,0.6
				c0,0-0.2,0.1-0.8,0.2l-1.7-0.1l-1.4-0.1l-0.7,1.2c-0.4,0.8-1,2.4-2,12.4c-0.3,2.8-0.6,5-0.8,6.6c-0.2,1.6-0.9,5-2.1,10.3
				c-1.1,5.3-1.9,8.8-2.1,10.5l-0.4,2.3l-1.3,7.7c-0.8,5-1.4,8.4-1.7,10.1c-0.3,1.7-1.1,5.9-2.3,12.6c-1.2,6.6-2.3,11.6-3.4,14.8
				l-0.1,0.3v0.4c0,0.9,0.3,2.1,1.7,3.2c1,0.8,2,1.2,3.1,1.2c2.8,0,4.4-3,5.9-11c0.7-3.2,1.1-6,1.3-8.4l0.2-1.7c0.2,0,0.5,0,0.8,0
				c1.2,0,2.3,0.2,3.3,0.6l0.4,0.2l0.5,0l3.5-0.1c1.5,0,2.8,0.1,4,0.3c0.1,0.7,0.3,1.6,0.5,2.7c0.4,2.1,0.6,3.6,0.8,4.7
				c0.1,0.9,0.3,2.2,0.4,3.9c0.1,1.6,0.2,3,0.2,4c0,1.7,0.4,2.9,1.1,3.8c1.1,1.4,3.3,1.6,5,1.6h0.6l0.5-0.3c1.4-0.8,2.1-2.4,2.1-4.8
				c0-1.7-0.4-4.5-1.1-8.6c-0.7-3.5-1-6.2-1.1-8l0.5-1.5l0.1-0.4v-0.4c0-2-0.4-4.7-1.3-8.4c-0.8-3.4-1.5-6.9-2.1-10.4
				c-0.6-3.5-1.5-11.4-2.5-23.4c-1.1-12-1.6-20.3-1.6-24.4c0-1.3-0.6-2.4-1.7-3.2C214.1,15.3,213.2,14.9,212.2,14.9L212.2,14.9z
				 M203.4,79.5c0.1-1.2,0.4-3.9,1.6-9.6c0.8-4,2.6-12.8,5.5-27.3c0.3,2.5,0.6,5.3,1,8.2c1.3,10.4,2,18.4,2,23.7v3
				c0,1.3,0.1,2.6,0.3,3.8c-3.2-0.1-6.2-0.5-8.9-1.3C204.1,79.9,203.6,79.6,203.4,79.5L203.4,79.5z"/>
		</g>
	</g>
	<g>
		<g>
			<path class="st1" d="M391.6,107.9h-3.7l1-0.7c-4.8-1.3-8.5-3.3-11.1-5.7c-2.5-2.4-4.3-6.3-5.2-11.8c-1.6-8.8-2.5-23.1-2.5-42.5
				c0-7.7,0.2-13.1,0.7-16.4c0.4-3.2,0.9-6.1,1.4-8.5c0.5-2.5,1.1-4.7,1.9-6.5c0.7-1.8,1.7-3.7,2.8-5.6c1.1-2,2.4-3.6,3.9-4.8
				c3.2-2.8,7.1-4.2,11.7-4.2c4.4,0,5,2.1,5,3.3c0,1.7-1.1,2.7-3,2.7h-0.1l-3.8-0.7c-6.1,0.1-10.1,6-12,17.7
				c-1.1,6.7-1.7,15.5-1.7,26.3c-0.3,7-0.4,11.9-0.4,14.6c0,2.7,0,4.8,0.1,6.3c0,1.5,0.1,3.3,0.3,5.6c0.1,2.2,0.4,4.2,0.8,5.9
				c0.4,1.7,0.8,3.7,1.3,5.8c0.5,2,1.2,3.7,2,5.1c0.8,1.5,1.8,2.8,3,4.1c2.2,2.5,5.3,3.7,9.4,3.7c3.9,0,7.1-1.9,9.8-5.9
				c0-6.3-0.4-10.6-1.1-12.9c-0.7-2.1-1.2-2.7-1.3-2.9l-5.2,0.5h-0.1c-3.7,0-4.1-2.3-4.1-3.3c0-1.9,2.6-2.6,4.8-3.1
				c2.7-0.6,4.8-0.9,6.2-0.9c2,0,5.2,0.9,5.2,6.7c0,2.6,0.4,6.5,1.3,11.7c0.9,5.3,1.3,9.3,1.3,12c0,2-1.1,3.2-2.8,3.2
				c-2.3,0-3.8-1.1-4.2-3c-0.4,0.3-1,0.6-1.6,1.1c-1.5,1.1-2.6,1.7-3.4,2c-0.3,0.1-0.7,0.2-1.1,0.3l4.6,1h-9.7l0,0L391.6,107.9z"/>
			<path class="st2" d="M392.4,2.1c2.6,0,4,0.8,4,2.3c0,1.1-0.6,1.6-1.9,1.6l-3.8-0.7c-6.8,0-11.2,6.2-13.2,18.6
				c-1.1,6.8-1.7,15.6-1.7,26.5c-0.3,7-0.4,11.9-0.4,14.6c0,2.7,0,4.8,0.1,6.3c0,1.5,0.1,3.4,0.3,5.6c0.2,2.2,0.4,4.3,0.8,6.1
				c0.4,1.8,0.8,3.7,1.3,5.8c0.5,2.1,1.2,3.9,2.1,5.4c0.9,1.5,1.9,3,3.1,4.3c2.4,2.7,5.8,4,10.2,4s8-2.2,10.8-6.6
				c0-6.6-0.4-11.1-1.2-13.5c-0.8-2.4-1.5-3.6-2.2-3.6l-5.3,0.5c-2,0-3-0.8-3-2.3c0-0.8,1.3-1.5,3.9-2.1c2.6-0.6,4.6-0.8,6-0.8
				c2.8,0,4.2,1.9,4.2,5.6c0,2.6,0.4,6.6,1.3,11.8c0.9,5.3,1.3,9.2,1.3,11.8c0,1.4-0.6,2.1-1.8,2.1c-2.1,0-3.2-1-3.2-2.9
				c0,0,0-0.2,0.1-0.3s0.1-0.3,0.1-0.3c-0.9,0.3-2,0.9-3.4,1.9c-1.4,1-2.4,1.6-3.1,1.8c-0.7,0.2-1.7,0.4-3.1,0.5
				c-1.4,0.1-2.4,0.3-3,0.7c-5.7-1.3-10.1-3.3-12.9-6.1c-2.3-2.2-4-5.9-4.9-11.2c-1.6-8.8-2.5-22.9-2.5-42.3c0-7.6,0.2-13,0.6-16.2
				c0.4-3.2,0.9-6,1.4-8.5c0.5-2.4,1.1-4.6,1.8-6.4c0.7-1.8,1.6-3.6,2.7-5.5c1.1-1.9,2.3-3.4,3.6-4.5C384.4,3.5,388.1,2.1,392.4,2.1
				 M391.5,106.8c0.1,0,0.1,0,0.2,0L391.5,106.8C391.5,106.8,391.5,106.8,391.5,106.8 M392.4,0c-4.8,0-9,1.5-12.4,4.5
				c-1.5,1.3-2.9,3-4.1,5.1c-1.1,2-2.1,3.9-2.8,5.8c-0.8,1.9-1.4,4.2-1.9,6.7c-0.5,2.5-1,5.4-1.4,8.6c-0.5,3.3-0.7,8.7-0.7,16.5
				c0,19.4,0.8,33.8,2.5,42.7c1,5.8,2.9,9.8,5.6,12.4c2.3,2.2,5.4,4,9.3,5.3l-2.1,1.4h7.1h0l0.4,0.1l0.2-0.1h19.2l-10.8-2.4
				c0.5-0.3,1-0.6,1.6-1.1c0.2-0.1,0.3-0.2,0.5-0.3c0.8,1.5,2.5,2.4,4.7,2.4c2.4,0,3.9-1.7,3.9-4.2c0-2.8-0.4-6.8-1.4-12.2
				c-0.9-5.1-1.3-9-1.3-11.5c0-7-4.4-7.7-6.3-7.7c-1.5,0-3.7,0.3-6.5,0.9c-1.7,0.4-5.6,1.2-5.6,4.2c0,2.1,1.4,4.4,5.2,4.4h0.1l0.1,0
				L400,81c0.2,0.3,0.5,1,0.8,2.1c0.5,1.5,1.1,4.7,1.1,12.2c-2.4,3.4-5.2,5.1-8.7,5.1c-3.8,0-6.6-1.1-8.6-3.3
				c-1.1-1.2-2-2.5-2.8-3.9c-0.8-1.4-1.4-3-1.9-4.9c-0.5-2.1-1-4-1.3-5.7c-0.3-1.7-0.6-3.6-0.7-5.8c-0.2-2.2-0.2-4.1-0.3-5.5
				c0-1.5-0.1-3.6-0.1-6.2c0-2.6,0.1-7.5,0.4-14.5l0,0v0c0-10.7,0.6-19.5,1.7-26.1c1.8-11,5.4-16.7,10.9-16.8l3.6,0.7l0.2,0h0.2
				c3,0,4.1-2,4.1-3.8C398.5,3.1,397.9,0,392.4,0L392.4,0z"/>
		</g>
		<g>
			<path class="st1" d="M443.9,107.5l-2.4-0.8l-0.2-0.2c-2.2-2.5-4.5-11.2-7.1-26.5c-2.9-17.5-4.6-20.3-5.2-20.8h-0.4
				c-1.8,0-1.8,0.6-1.8,0.8c0,4.8,0.3,12.9,0.8,24.1c0.7,13.9,1.1,17.8,1.4,18.7l0.1,0.4l-1.4,3.2h-3.1l-1.6-1.7l0-0.4
				c-1.4-38.2-2.1-66.4-2.1-83.8c0-5.1,2.2-6.1,4-6.1c4.6,0,8.4,1.2,11.4,3.5c3.1,2.4,4.6,5.9,4.6,10.5V38c0,3.6-1.7,8.6-5.3,15.2
				c-1.1,2-1.5,2.7-1.6,3c0.2,1,1.3,5.7,5,20.7c4.1,16.8,5.1,20.8,5.3,21.3c0.1,0.3,0.4,0.9,1.3,2.6c0.8,1.6,1.2,2.9,1.2,4.1
				c0,1.6-1,2.6-2.6,2.6H443.9z M427.4,20c0,0.1-0.1,0.2-0.2,0.5c-0.2,0.7-0.3,1.3-0.3,1.9l0.5,31.3c1-0.2,2-0.9,2.9-2.1
				c1.3-1.6,2.2-3.7,2.9-6c1.4-5.1,2.1-9,2.1-11.5c0-2.6-0.1-4.6-0.3-5.9c-0.2-1.3-0.5-2.6-1-4.1C432.9,21.3,430.8,20,427.4,20z"/>
			<path class="st2" d="M424.9,15.5c4.3,0,7.9,1.1,10.7,3.3c2.8,2.2,4.2,5.4,4.2,9.6V38c0,3.4-1.7,8.3-5.2,14.7
				c-1.2,2.1-1.8,3.3-1.8,3.5s1.7,7.2,5,21c3.4,13.8,5.1,21,5.3,21.4c0.2,0.4,0.6,1.3,1.3,2.7c0.7,1.4,1,2.6,1,3.6
				c0,1-0.5,1.5-1.5,1.5l-1.9-0.6c-2.1-2.3-4.3-11-6.8-26c-2.4-14.5-4.4-21.7-6.1-21.7h-0.5c-1.9,0-2.9,0.6-2.9,1.9
				c0,4.8,0.3,12.9,0.8,24.2c0.6,11.3,1,17.6,1.4,18.9l-1,2.2h-1.9l-1-1C422.7,65.9,422,38,422,20.5C422,17.1,422.9,15.5,424.9,15.5
				 M426.5,54.8c1.7,0,3.2-0.9,4.5-2.6c1.3-1.8,2.4-3.9,3.1-6.4c1.4-5.2,2.1-9.1,2.1-11.8c0-2.7-0.1-4.7-0.3-6.1
				c-0.2-1.4-0.5-2.8-1.1-4.3c-1.2-3.1-3.7-4.7-7.6-4.7c-0.5,0-0.9,0.4-1.2,1.2c-0.3,0.8-0.4,1.6-0.4,2.2l0.5,32.2L426.5,54.8
				 M424.9,13.3c-4.6,0-5.1,5-5.1,7.2c0,17.4,0.7,45.6,2.1,83.8l0,0.8l0.5,0.6l1,1l0.6,0.7h0.9h1.9h1.4l0.6-1.3l1-2.2l0.3-0.7
				l-0.2-0.7c-0.2-0.5-0.6-3.4-1.3-18.4c-0.5-10.9-0.8-18.9-0.8-23.8c0.1,0,0.3-0.1,0.6-0.1c0.6,1.1,2.2,5.1,4.6,19.9
				c3.4,20.7,5.8,25.3,7.3,27l0.4,0.4l0.5,0.2l1.9,0.6l0.3,0.1h0.3c2.2,0,3.6-1.5,3.6-3.6c0-1.3-0.4-2.8-1.3-4.5
				c-0.8-1.6-1.1-2.3-1.2-2.5c-0.2-0.6-1.3-4.9-5.2-21.1c-3.3-13.8-4.5-18.8-4.9-20.3c0.2-0.4,0.6-1.2,1.4-2.6
				C440.2,47,442,41.9,442,38v-9.7c0-4.9-1.7-8.7-5-11.3C433.7,14.6,429.7,13.3,424.9,13.3L424.9,13.3z M428.4,51.9l-0.5-29.6
				c0-0.3,0.1-0.7,0.2-1.2c3.2,0.2,4.3,1.8,4.8,3.3c0.5,1.4,0.8,2.6,1,3.8c0.2,1.3,0.2,3.2,0.2,5.8c0,2.5-0.7,6.3-2.1,11.2
				c-0.6,2.2-1.5,4.1-2.7,5.7C429,51.3,428.7,51.7,428.4,51.9L428.4,51.9z"/>
		</g>
		<g>
			<path class="st1" d="M487,106.4c-2.2,0-3.5-0.4-4.2-1.2c-0.6-0.7-0.8-1.8-0.8-3.2c0-1.1-0.1-2.5-0.2-4.1c-0.2-1.7-0.3-3-0.4-3.9
				c-0.2-1-0.4-2.6-0.8-4.7c-0.3-1.5-0.5-2.7-0.6-3.4c-1.5-0.3-3.1-0.5-5-0.5l-3.7,0.1l-0.2-0.1c-1.1-0.5-2.4-0.7-3.7-0.7
				c-0.9,0-1.4,0-1.7,0c0,0.1,0,0.1-0.1,0.2l-0.2,2.5c-0.2,2.3-0.6,5-1.2,8.2c-1.4,7.2-2.8,10.1-4.9,10.1c-0.8,0-1.6-0.3-2.4-0.9
				c-1.1-0.9-1.3-1.8-1.3-2.4v-0.2l0.1-0.2c1.1-3.3,2.3-8.3,3.5-15c1.2-6.8,2-11,2.3-12.6c0.3-1.7,0.9-5.1,1.7-10.1l1.6-10
				c0.3-1.6,1-5,2.1-10.4c1.1-5.3,1.8-8.8,2.1-10.4c0.2-1.6,0.5-3.8,0.8-6.6c1-9.4,1.5-11.3,1.9-12l0.3-0.6l2.5,0.2
				c0.7,0,1.3-0.2,1.6-0.5l0.3-0.3h0.4c0.8,0,1.5,0.3,2.2,0.8c0.8,0.6,1.2,1.4,1.2,2.3c0,4.2,0.5,12.4,1.6,24.5
				c1.1,12.1,1.9,20,2.6,23.5c0.6,3.5,1.3,7.1,2.2,10.5c0.8,3.6,1.3,6.2,1.3,8.1v0.2l-0.6,1.8c0,1.9,0.4,4.7,1.1,8.4
				c0.8,4,1.1,6.7,1.1,8.4c0,2-0.5,3.3-1.6,3.9l-0.2,0.1H487z M475.2,33.2c-3.7,18.2-6,29.6-7,34.3c-1.1,5.3-1.6,8.7-1.6,10.3
				c0,0.1,0.4,0.7,2.4,1.2c3.1,0.9,6.6,1.3,10.4,1.3c-0.3-1.5-0.5-3.1-0.5-4.9v-3c0-5.4-0.7-13.4-2-23.9
				C476.1,42.6,475.6,37.5,475.2,33.2z"/>
			<path class="st2" d="M476.4,14.9c0.6,0,1.1,0.2,1.6,0.6c0.5,0.4,0.8,0.9,0.8,1.5c0,4.2,0.5,12.4,1.6,24.6
				c1.1,12.2,1.9,20,2.6,23.6c0.6,3.6,1.4,7.1,2.2,10.5c0.8,3.4,1.2,6.1,1.2,7.9l-0.6,1.8c0,2,0.4,4.9,1.1,8.8
				c0.7,3.9,1.1,6.6,1.1,8.2c0,1.6-0.3,2.6-1,3c-1.8,0-2.9-0.3-3.3-0.8c-0.4-0.5-0.6-1.4-0.6-2.5c0-1.1-0.1-2.6-0.2-4.2
				c-0.2-1.7-0.3-3-0.5-4s-0.4-2.6-0.8-4.7c-0.4-2.1-0.6-3.5-0.7-4.1c-1.7-0.4-3.7-0.6-6-0.6l-3.5,0.1c-1.3-0.5-2.6-0.8-4.2-0.8
				c-1.5,0-2.3,0-2.5,0.1c-0.1,0.1-0.2,0.2-0.3,0.5c0,0.2-0.1,0.4-0.1,0.5l-0.3,2.7c-0.2,2.3-0.6,5-1.2,8.1
				c-1.2,6.2-2.5,9.3-3.8,9.3c-0.6,0-1.1-0.2-1.8-0.7c-0.6-0.5-0.9-1-0.9-1.6c1.1-3.3,2.3-8.4,3.5-15.1c1.2-6.8,2-11,2.3-12.6
				c0.3-1.7,0.9-5,1.7-10.1c0.8-5.1,1.4-8.4,1.6-10c0.3-1.6,1-5.1,2.1-10.4c1.1-5.3,1.8-8.8,2.1-10.5c0.2-1.6,0.5-3.9,0.8-6.7
				c0.7-6.9,1.3-10.8,1.8-11.6l1.8,0.1C475.1,15.7,475.9,15.5,476.4,14.9 M479.5,81.4h1.4c-0.6-1.7-0.8-3.7-0.8-6v-3
				c0-5.5-0.7-13.5-2-24c-1.4-10.5-2.1-18.3-2.2-23.5c-4.6,22.9-7.5,37-8.6,42.4c-1.1,5.4-1.7,8.9-1.7,10.5c0,0.9,1.1,1.7,3.2,2.3
				C472,81,475.6,81.4,479.5,81.4 M476.4,12.8h-0.9l-0.6,0.6c0,0-0.2,0.1-0.8,0.2l-1.7-0.1l-1.4-0.1l-0.7,1.2c-0.4,0.8-1,2.4-2,12.4
				c-0.3,2.9-0.6,5-0.8,6.6c-0.2,1.6-0.9,5.1-2.1,10.3c-1.2,5.4-1.9,8.9-2.1,10.5l-0.6,3.5l-1.1,6.5c-0.8,4.9-1.4,8.4-1.7,10.1
				c-0.3,1.7-1.1,5.9-2.3,12.6c-1.2,6.6-2.3,11.6-3.4,14.8l-0.1,0.3v0.4c0,0.9,0.3,2.1,1.7,3.2c1,0.8,2,1.2,3.1,1.2
				c2.8,0,4.4-3,5.9-11c0.7-3.2,1.1-6,1.3-8.4l0.2-1.7c0.2,0,0.5,0,0.8,0c1.2,0,2.3,0.2,3.3,0.6l0.4,0.2l0.5,0l3.5-0.1
				c1.5,0,2.8,0.1,4,0.3c0.1,0.7,0.3,1.6,0.5,2.7c0.3,2,0.6,3.6,0.8,4.7c0.1,0.9,0.3,2.2,0.4,3.9c0.1,1.6,0.2,3,0.2,4
				c0,1.7,0.4,2.9,1.1,3.8c1.1,1.4,3.3,1.6,5,1.6h0.6l0.5-0.3c1.4-0.8,2.1-2.4,2.1-4.8c0-1.7-0.4-4.5-1.1-8.6c-0.7-3.5-1-6.2-1.1-8
				l0.5-1.5l0.1-0.4v-0.4c0-2-0.4-4.7-1.3-8.4c-0.8-3.4-1.5-6.9-2.1-10.4c-0.6-3.5-1.5-11.4-2.5-23.4c-1.1-12-1.6-20.3-1.6-24.4
				c0-1.3-0.6-2.4-1.7-3.2C478.4,13.1,477.5,12.8,476.4,12.8L476.4,12.8z M467.7,77.4c0.1-1.2,0.4-3.9,1.6-9.6
				c0.8-3.9,2.5-12.5,5.5-27.3c0.3,2.5,0.6,5.3,1,8.2c1.3,10.4,2,18.4,2,23.7v3c0,1.3,0.1,2.6,0.3,3.8c-3.2-0.1-6.2-0.5-8.9-1.3
				C468.4,77.7,467.9,77.5,467.7,77.4L467.7,77.4z"/>
		</g>
		<g>
			<path class="st1" d="M553.1,112.1c-3.3,0-3.7-5.5-3.7-9.6c0-18.4-0.1-29.7-0.4-33.7c-0.3-4-0.6-7.3-0.9-9.8
				c-0.3-2.5-0.5-4.5-0.5-5.9l0.5-16.5c0-1.1,0-1.9-0.1-2.7c-1.9,5.1-5.9,18.6-14.3,52.7c0,0.1-0.1,0.6-0.3,1.8
				c-0.1,1-0.2,2-0.4,2.8c-0.2,0.9-0.4,1.8-0.6,2.7c-0.9,3.1-2.5,3.8-3.8,3.8c-1.8,0-3.1-0.5-3.9-1.5c-0.8-0.9-1.1-2.2-1.1-4
				c0-3.5-2.3-14.5-6.8-32.7c-3.7-14.8-5.9-22.2-7.3-25.9c-0.2,4.5-0.5,10.3-1,17.8c-1.2,20.4-1.8,34.2-1.8,41.2
				c0,7,0,11.1,0.1,12.2l0,0.2l-0.1,0.2c-0.3,0.9-1.2,2.5-3.8,2.5c-0.6,0-1.2-0.3-2-0.9c-0.6-0.5-1.3-1.2-1.3-2
				c0-9.3,0.7-23.5,2.1-42c1.4-18.4,2.1-32.4,2.1-41.7l-0.8-2.5v-0.2c0-1.2,0.6-3.1,4.6-3.1c1.8,0,3.1,1,3.6,2.9
				c0.3,1.2,0.5,2.4,0.6,3.6c0.1,1.1,0.2,2.4,0.5,3.8c0.2,1.4,1.4,4.3,3.3,8.7c2,4.5,3.3,7.7,3.7,9.3c0.4,1.6,1,3.5,1.7,5.9
				c1.4,5,2.4,8.8,2.9,11.4l1.8,3.5l0,0.2c0.3,1.5,0.8,3.6,1.5,6.4c0.9,3.8,1.6,7.1,2,10c1.2-3.8,3.3-10.7,6.7-23.1
				c4.5-16.7,7-26.2,7.4-28.4c0.4-2.1,0.7-3.8,0.9-5c0.2-1.2,0.4-2.1,0.5-2.8c0.2-0.7,0.4-1.5,0.7-2.5c1-2.9,2.9-3.5,4.3-3.5
				c0.8,0,1.6,0.3,2.6,0.9c1.2,0.7,1.7,1.6,1.7,2.5c0,47.9,1,56.9,1.6,58.1l0.1,0.2l0,0.3l-0.3,14c0,6,0.4,10.6,1.3,13.5
				c0.2,0.6,0.3,1.3,0.3,2c0,0.8-0.3,1.7-0.9,2.9C555.2,111.7,554,112.1,553.1,112.1z"/>
			<path class="st2" d="M507.7,16.4c1.3,0,2.2,0.7,2.6,2.1c0.3,1.1,0.5,2.2,0.6,3.3c0.1,1.1,0.2,2.4,0.5,3.9c0.3,1.5,1.4,4.4,3.4,9
				c2,4.5,3.2,7.6,3.7,9.2c0.4,1.6,1,3.6,1.7,5.9c1.4,5.1,2.4,8.9,2.9,11.4l1.8,3.5c0.3,1.5,0.8,3.6,1.5,6.5
				c1.5,6,2.2,10.8,2.3,14.3c1-1.6,3.8-10.7,8.4-27.5c4.5-16.8,7-26.3,7.4-28.5c0.4-2.2,0.7-3.9,0.9-5c0.2-1.1,0.3-2.1,0.5-2.7
				c0.2-0.7,0.4-1.5,0.7-2.4c0.6-1.8,1.7-2.7,3.2-2.7c0.6,0,1.3,0.3,2.1,0.8c0.8,0.5,1.2,1.1,1.2,1.6c0,37.1,0.6,56.7,1.8,58.6
				l-0.3,14c0,6.2,0.4,10.8,1.3,13.8c0.2,0.5,0.3,1.1,0.3,1.7c0,0.6-0.3,1.4-0.8,2.4c-0.5,1-1.2,1.5-2.1,1.5c-1.8,0-2.7-2.8-2.7-8.5
				c0-18.5-0.1-29.7-0.4-33.8c-0.3-4-0.6-7.3-0.9-9.8c-0.3-2.5-0.5-4.4-0.5-5.8l0.5-16.5c0-3.1-0.2-5.2-0.5-6.3
				c-1.7,1.4-7.1,20.1-16,56c-0.1,0.3-0.2,1-0.3,1.9c-0.1,1-0.2,1.9-0.4,2.8c-0.2,0.8-0.4,1.7-0.6,2.6c-0.6,2-1.5,3-2.7,3
				c-1.5,0-2.5-0.4-3.1-1.1c-0.6-0.7-0.9-1.8-0.9-3.3c0-3.6-2.3-14.6-6.9-33c-4.6-18.3-7.7-28.3-9.2-29.8
				c-0.2,4.8-0.6,12.1-1.2,21.9c-1.2,20.5-1.8,34.2-1.8,41.2c0,7,0,11.1,0.1,12.3c-0.4,1.2-1.3,1.8-2.8,1.8c-0.3,0-0.8-0.2-1.4-0.7
				c-0.6-0.5-0.9-0.9-0.9-1.2c0-9.3,0.7-23.3,2.1-41.9c1.4-18.6,2.1-32.6,2.1-41.9l-0.8-2.5C504.1,17,505.3,16.4,507.7,16.4
				 M548.6,29.8v-0.3h-0.1l-0.2,0.1L548.6,29.8 M507.7,14.2c-5.2,0-5.7,2.9-5.7,4.2v0.3L502,19l0.7,2.2c0,9.2-0.7,23.2-2.1,41.5
				c-1.4,18.6-2.1,32.7-2.1,42.1c0,1.3,1,2.3,1.7,2.9c0.7,0.5,1.6,1.2,2.7,1.2c2.4,0,4.1-1.2,4.8-3.2l0.1-0.4l0-0.4
				c-0.1-1.1-0.1-5.2-0.1-12.1c0-6.9,0.6-20.8,1.7-41.1c0.3-4.6,0.5-8.6,0.7-12.1c1.3,4.3,3.1,10.7,5.5,20.4
				c5.6,22.5,6.8,30.1,6.8,32.5c0,2,0.4,3.5,1.4,4.6c1,1.2,2.6,1.9,4.7,1.9c1.3,0,3.7-0.6,4.8-4.5c0.3-1,0.5-1.9,0.7-2.8
				c0.2-0.9,0.3-1.9,0.4-2.9c0.1-1.2,0.2-1.6,0.2-1.6l0,0l0,0c6.1-24.5,9.8-38.3,12.1-45.9L546.5,53l0,0v0c0,1.4,0.2,3.5,0.5,6.1
				c0.3,2.4,0.6,5.7,0.9,9.7c0.3,4,0.4,15.3,0.4,33.6c0,2.9,0,10.7,4.8,10.7c1,0,2.8-0.3,4-2.6c0.7-1.3,1.1-2.4,1.1-3.4
				c0-0.8-0.1-1.6-0.4-2.3c-0.8-2.8-1.2-7.3-1.2-13.2l0.3-13.9l0-0.6l-0.3-0.4c-0.6-1.6-1.5-11.3-1.5-57.6c0-0.9-0.4-2.3-2.2-3.4
				c-1.2-0.7-2.2-1.1-3.2-1.1c-1.4,0-4,0.5-5.3,4.1l0,0l0,0c-0.3,1-0.6,1.9-0.7,2.6c-0.2,0.8-0.4,1.7-0.6,2.9
				c-0.2,1.1-0.5,2.8-0.9,5c-0.4,2.1-2.9,11.7-7.4,28.3c-2.4,8.9-4.1,14.8-5.3,18.8c-0.3-1.7-0.8-3.6-1.2-5.6
				c-0.7-2.8-1.2-4.9-1.5-6.4l-0.1-0.3l-0.1-0.3l-1.6-3.2c-0.5-2.6-1.5-6.4-2.8-11.3c-0.7-2.4-1.3-4.3-1.7-5.9
				c-0.5-1.7-1.7-4.8-3.8-9.5c-2.4-5.4-3.1-7.6-3.3-8.5c-0.2-1.4-0.4-2.6-0.5-3.6c-0.1-1.3-0.3-2.6-0.6-3.8
				C511.7,15.5,510,14.2,507.7,14.2L507.7,14.2z"/>
		</g>
	</g>
</g>
</svg>
