<?xml version="1.0" encoding="utf-8"?>
<!-- Generator: Adobe Illustrator 21.0.0, SVG Export Plug-In . SVG Version: 6.00 Build 0)  -->
<svg version="1.1" id="Layer_1" xmlns="http://www.w3.org/2000/svg" xmlns:xlink="http://www.w3.org/1999/xlink" x="0px" y="0px"
	 width="276.5px" height="220.7px" viewBox="0 0 276.5 220.7" style="enable-background:new 0 0 276.5 220.7;" xml:space="preserve"
	>
<style type="text/css">
	.st0{fill:#FFFFFF;}
</style>
<g>
	<g>
		<path class="st0" d="M111,8.9C101,2.5,83.6-2.6,79.9,1.5c-3.7,4.1,2.7,21,10,30.4C97.9,41.8,121.9,15.8,111,8.9z"/>
		<path class="st0" d="M165.5,8.9c10-6.4,27.4-11.5,31.1-7.4s-2.7,21-10,30.4C178.6,41.8,154.7,15.8,165.5,8.9z"/>
		<ellipse class="st0" cx="157.5" cy="46.3" rx="1.9" ry="6.5"/>
		<ellipse class="st0" cx="119.1" cy="46.3" rx="1.9" ry="6.5"/>
		<path class="st0" d="M138.3,1.9C111.1,2,89,18.6,89,39c0,20.3,22.1,36.9,49.3,36.9s49.4-16.7,49.4-37S165.5,1.9,138.3,1.9z
			 M119.1,55.3c-7.2,0-13.2-5.9-13.2-13.2s5.8-13,13.2-13c7.3,0,13.2,5.8,13.2,13C132.3,49.5,126.4,55.3,119.1,55.3z M138.3,63.7
			c-5.4,0-12-5.9,0-6.2C150.4,57.7,143.7,63.7,138.3,63.7z M157.5,55.3c-7.3,0-13.2-5.9-13.2-13.2s5.9-13,13.2-13
			c7.3,0,13.2,5.8,13.2,13C170.7,49.5,164.8,55.3,157.5,55.3z"/>
		<path class="st0" d="M84.7,46.6c-5,0-9.4,2.7-11.2,6.7c-0.1,0-0.4,0-0.6,0c-5.6,0-10.2,4.1-10.2,9.2c0,7.1,7.3,11,14,8.5
			c4.1,5.9,12.7,6.4,16,0c5-0.1,12.9-0.9,14-8.5c0.6-5-4.5-9.2-10.2-9.2c-0.1,0-0.4,0-0.6,0C94.1,49.5,89.7,46.6,84.7,46.6
			L84.7,46.6z M192,46.6c5,0,9.4,2.7,11.2,6.7c0.1,0-2.3,0,0.6,0c2.9,0,10.2,4.1,10.2,9.2c0,7.1-7.3,11-14,8.5
			c-4.1,5.9-12.7,6.4-16,0c-5-0.1-12.9-0.9-14-8.5c-0.6-5,7.2-9.2,10.2-9.2c2.9,0,0.4,0,0.6,0C182.7,49.5,187,46.6,192,46.6z"/>
		<g>
			<g>
				<path class="st0" d="M176.9,54.4c12.3-15.2,37.3-22.6,54-12.1C211.6,39.4,193.7,44.3,176.9,54.4z"/>
				<path class="st0" d="M176.3,50.7c6.9-16.3,27.4-26.8,44-21.2C202.8,31.7,188.9,38.6,176.3,50.7z"/>
				<path class="st0" d="M175.9,58.7c12.5-12,40.6-16.2,49.1-3.5C207.8,49.7,192.7,52.2,175.9,58.7z"/>
			</g>
			<g>
				<path class="st0" d="M99.6,54.4c-12.2-15.2-37.2-22.6-54-12.1C65.2,39.4,82.9,44.3,99.6,54.4z"/>
				<path class="st0" d="M100.5,50.7c-6.9-16.3-27.4-26.8-44-21.2C73.8,31.7,87.8,38.6,100.5,50.7z"/>
				<path class="st0" d="M100.7,58.7c-12.5-12-40.6-16.2-49.1-3.5C69,49.7,83.9,52.2,100.7,58.7z"/>
			</g>
		</g>
	</g>
	<g>
		<g>
			<path class="st0" d="M30.5,82c2.2,0,4.2,0.4,6,1.1c1.8,0.7,3.5,1.5,5,2.4c1.5,0.9,3,1.7,4.4,2.4c1.4,0.7,2.8,1.1,4.3,1.1
				c1.1-0.1,2.4-0.2,3.9-0.5c1.3-0.3,2.7-0.6,4.4-1.2c1.7-0.5,3.5-1.3,5.6-2.4c-2.1,2-3.8,3.7-5.1,5.1c-1.3,1.4-2.3,2.5-3,3.4
				c-0.8,1-1.4,1.8-1.8,2.4c-0.4,0.7-0.9,1.7-1.7,3.1c-0.7,1.3-1.6,2.9-2.8,5.1c-1.2,2.1-2.7,4.9-4.5,8.3c0-4.3-0.4-7.7-1.3-10.1
				c-0.9-2.4-1.8-4.2-2.8-5.5c-1.2-1.4-2.6-2.4-4.1-2.7c-1.4-0.2-2.8,0-4.2,0.7c-1.4,0.7-2.8,1.6-4.1,2.9c-1.4,1.3-2.6,2.8-3.9,4.5
				c-1.2,1.7-2.3,3.5-3.3,5.4c-1,1.9-1.8,3.8-2.4,5.7c-0.6,1.9-1,3.7-1.2,5.3c-0.2,1.4-0.2,3.1-0.1,5.1c0.1,1.9,0.4,3.9,0.9,5.9
				c0.4,2,1,3.9,1.7,5.8c0.7,1.9,1.6,3.6,2.6,5.1c1,1.5,2.2,2.7,3.5,3.6c1.3,0.9,2.8,1.3,4.5,1.3c1.9-0.1,3.7-0.7,5.6-1.7
				c1.6-0.8,3.2-2.1,4.8-3.8c1.6-1.7,3.1-4.2,4.3-7.4l14,2.5c-4,4.9-8,8.6-11.8,11.1c-3.8,2.5-7.2,4.2-10.2,5.2
				c-3.5,1.1-6.9,1.7-10,1.6c-4-0.4-7.7-1.6-11.1-3.6c-3.5-2-6.4-4.3-8.9-7.1c-2.5-2.8-4.4-5.9-5.8-9.2c-1.4-3.3-2-6.6-1.8-9.8
				c0.1-2.1,0.6-4.6,1.3-7.5c0.8-2.9,1.8-5.8,3.1-8.8c1.3-3,2.8-6,4.7-8.9c1.8-2.9,3.8-5.5,6-7.8c2.2-2.3,4.6-4.2,7.2-5.6
				C25,82.7,27.7,82,30.5,82z"/>
		</g>
		<g>
			<path class="st0" d="M67.8,113.6c0.3-0.4,0.5-1.1,0.6-2.1c0.1-1,0.3-2.2,0.8-3.5c0.4-1.3,1.1-2.7,2.1-4.2c1-1.4,2.6-2.8,4.9-4.1
				c2.2-1.3,4.3-2,6.4-2.3c2.1-0.3,4.1-0.2,6,0.3c1.9,0.4,3.7,1.1,5.3,2.1c1.7,0.9,3.2,2,4.6,3.1c0.9,0.8,1.7,1.8,2.3,3.3
				c0.6,1.4,1,3,1.3,4.8c0.3,1.8,0.6,3.6,0.7,5.5c0.2,1.9,0.3,3.8,0.3,5.6c0.1,1.8,0.1,3.4,0.1,4.9c0,1.5,0.1,2.7,0.3,3.6
				c0.3,1.4,0.7,2.6,1.3,3.5c0.6,1,1.3,1.8,2.1,2.5c0.8,0.7,1.5,1.2,2.3,1.6c0.8,0.4,1.4,0.7,2,0.8c0.4,0.2,0.7,0.3,1,0.4
				c0.6,0.3,1.1,0.3,1.3,0c-0.4,0.9-0.7,1.6-1,2.3c-0.3,0.6-0.6,1.2-0.8,1.6c-0.3,0.5-0.5,0.9-0.7,1.2c-0.2,0.4-0.4,0.7-0.7,1
				c-0.2,0.3-0.4,0.7-0.8,1c-0.3,0.4-0.6,0.8-0.9,1.2c-0.8-0.3-1.6-0.7-2.3-1.1c-0.7-0.4-1.4-0.9-1.9-1.2c-0.7-0.4-1.3-0.9-1.9-1.3
				c-0.6-0.4-1.1-0.9-1.6-1.5c-0.4-0.5-0.9-1-1.4-1.6c-0.5-0.6-0.9-1.2-1.2-1.9c-0.4,0.8-1.3,2-2.7,3.5c-1.4,1.5-3.3,2.9-5.5,4.1
				s-4.9,2.1-7.9,2.6c-3,0.5-6.3,0.2-9.9-1c-1.6-0.5-3.1-1.2-4.4-2.2c-1.4-1-2.6-2.2-3.5-3.5c-1-1.4-1.7-3-2.1-4.8
				c-0.4-1.8-0.4-3.8,0-6c0.4-2.2,1.2-4.1,2.4-5.6c1.1-1.5,2.5-2.7,4.1-3.7c1.6-0.9,3.3-1.7,5.3-2.2c2-0.5,4-0.8,6-1
				c1.6-0.1,3.3,0,4.9,0.3c1.4,0.3,2.8,0.7,4.3,1.4c1.5,0.7,2.8,1.7,3.9,3c-0.1-3.3-0.2-6-0.3-8c-0.2-2-0.3-3.5-0.4-4.6
				c-0.3-1.3-0.5-2.1-0.7-2.6c-0.3-0.4-0.6-0.9-1-1.5c-0.3-0.6-0.8-1.1-1.3-1.6c-0.5-0.5-1.1-0.9-1.9-1.2c-0.8-0.3-1.6-0.4-2.6-0.4
				c-1.1,0.1-1.9,0.3-2.6,0.9c-0.6,0.5-1.1,1.1-1.5,1.7c-0.3,0.7-0.6,1.4-0.6,2.1c-0.1,0.8,0,1.4,0.1,2c0.1,0.4,0.3,0.8,0.6,1.2
				c0.3,0.4,0.6,0.8,1,1.2c0.4,0.4,1,0.8,1.8,1.1c-1.4,0.2-2.7,0.3-3.9,0.4c-1.1,0.1-2.1,0.2-2.9,0.3c-0.9,0.1-1.8,0.2-2.5,0.3
				c-0.7,0.1-1.5,0.2-2.5,0.4c-0.8,0.1-1.8,0.3-3,0.5c-1.2,0.2-2.6,0.4-4.2,0.8c0.4-0.4,0.7-0.9,1-1.3c0.3-0.4,0.6-0.8,0.9-1.1
				C67.3,114.2,67.5,113.9,67.8,113.6z M81.9,124.8c-1.1,0.1-2.3,0.3-3.4,0.8c-1.1,0.5-2.1,1.1-3,2c-0.9,0.9-1.6,1.8-2.2,2.9
				c-0.6,1.1-0.9,2.3-0.9,3.6c0,1.3,0.3,2.5,1,3.4c0.7,1,1.5,1.8,2.6,2.4c1.1,0.6,2.3,1,3.6,1.1c1.3,0.1,2.6,0,3.8-0.4
				c1.2-0.4,2.3-1.1,3.4-2.1c1.1-1,2-2,2.7-3.2c0.8-1.2,1.3-2.3,1.6-3.5c0.3-1.2,0.3-2.1,0.1-2.9c-0.5-1.6-1.6-2.8-3.4-3.4
				C86.1,124.9,84.1,124.7,81.9,124.8z"/>
		</g>
		<g>
			<path class="st0" d="M111.5,92.3c1.9,0.2,3.5,0.3,4.8,0.5c1.3,0.1,2.3,0.2,3.2,0.3c0.9,0.1,1.7,0.1,2.3,0.1
				c0.6,0.1,1.3,0.1,2.3,0c0.8-0.1,1.9-0.1,3.2-0.2c1.3-0.1,3-0.3,5-0.5c-0.4,0.6-0.8,1.2-1,1.7c-0.3,0.5-0.5,0.9-0.7,1.3l-0.6,1.1
				c-0.1,0.4-0.3,0.8-0.4,1.1c-0.1,0.3-0.2,0.7-0.3,1.1c-0.1,0.4-0.2,0.9-0.2,1.4h14.5l-1.3,7.7l-13.3-0.8c-0.3,3.2-0.5,5.7-0.7,7.5
				c-0.1,1.8-0.3,3.1-0.4,3.9l-0.2,1.7c-0.2,2.4-0.4,5-0.6,7.8c-0.2,2.8-0.3,5.4-0.2,7.8c0.1,2.4,0.3,4.4,0.7,6c0.4,1.6,1,2.4,2,2.4
				s1.8-0.3,2.6-0.8c0.8-0.5,1.5-1.1,2.1-1.8c0.6-0.7,1.1-1.4,1.4-2.1c0.3-0.7,0.5-1.3,0.5-1.7c0-0.4-0.1-0.8-0.3-1.3
				c-0.3-0.9-0.9-2.1-1.7-3.6c1.8,0.4,3.4,0.9,4.8,1.3c0.7,0.3,1.3,0.5,1.9,0.8c0.6,0.3,1.4,0.5,2.2,0.9c0.7,0.3,1.6,0.7,2.6,1.1
				c1.1,0.4,2.3,1,3.8,1.6c-1.4,0.3-2.4,0.7-3,1.2c-0.4,0.3-0.7,0.5-0.9,0.9c-0.4,0.7-0.9,1.6-1.5,2.8c-0.6,1.2-1.4,2.3-2.6,3.4
				c-1.1,1.1-2.7,2.1-4.6,3c-1.9,0.9-4.5,1.4-7.7,1.5c-3.3,0.1-5.9-0.4-7.6-1.7c-1.7-1.3-3-2.7-3.8-4.4c-0.8-1.7-1.2-3.3-1.4-5
				c-0.1-1.6-0.2-2.7-0.3-3.3c-0.1-0.6-0.1-2,0-4.3c0.1-2.3,0.2-4.8,0.3-7.5c0.1-2.7,0.3-5.4,0.4-7.9c0.1-2.6,0.2-4.4,0.2-5.6
				c0-0.6,0-1.3,0.1-2c0-0.6,0-1.2,0-1.8c0-0.7,0-1.3,0-1.9l-13.7-0.1l-0.6-5.4l13.8,0.4c-0.1-0.7-0.3-1.3-0.4-1.9
				c-0.2-0.6-0.3-1.1-0.4-1.5c-0.2-0.4-0.4-0.8-0.6-1.1c-0.3-0.3-0.5-0.7-0.9-1c-0.3-0.3-0.7-0.7-1.2-1.2
				C112.8,93.5,112.2,92.9,111.5,92.3z"/>
		</g>
		<g>
			<path class="st0" d="M187.3,97.9c-0.6,1.4-1.1,2.6-1.5,3.8c-0.4,1.1-0.8,2.1-1.1,3c-0.3,1-0.6,1.9-0.9,2.6
				c-0.3,0.9-0.5,1.9-0.9,3c-0.3,1-0.7,2.3-1.2,3.7c-0.5,1.5-1,3.2-1.7,5.2c-0.5-3-1.4-5.4-2.7-7.2c-1.3-1.8-2.7-3.2-4.1-4.2
				c-1.6-1.1-3.4-2-5.3-2.5c-3.4-0.6-5.9-0.5-7.4,0.2c-1.5,0.7-2.5,1.6-3,2.6c-0.3,0.4-0.5,1-0.8,1.7c-0.3,0.7-0.5,1.3-0.7,2
				c-0.2,0.7-0.2,1.4-0.1,2.1c0.1,0.7,0.3,1.3,0.9,1.7c0.3,0.3,1.1,0.7,2.5,1.3s2.9,1.1,4.8,1.8c1.9,0.7,3.8,1.4,6,2.1
				c2.1,0.8,4.1,1.5,6,2.3c1.9,0.8,3.5,1.5,4.9,2.3c1.4,0.8,2.3,1.4,2.7,2.1c0.4,0.6,0.8,1.5,1.3,2.5c0.5,1,0.8,2.2,1,3.4
				c0.2,1.2,0.3,2.5,0.2,3.8c-0.1,1.3-0.5,2.6-1.1,3.8c-0.6,1.3-1.6,2.4-3,3.5c-1.4,1.1-3.2,2-5.4,2.6c-2.6,0.8-5.2,1-7.7,0.7
				c-2.5-0.4-4.7-0.9-6.8-1.7c-2-0.8-3.8-1.5-5.3-2.2c-1.5-0.7-2.6-1-3.2-0.9c-0.7,0.1-1.5,0.5-2.4,1c-0.9,0.6-1.7,1.1-2.5,1.7
				c-0.8,0.6-1.5,1.1-2,1.6c-0.6,0.5-0.9,0.6-0.9,0.5c0-0.1,0.1-0.5,0.3-1.1c0.2-0.6,0.5-1.4,0.8-2.3c0.3-0.9,0.6-1.9,0.9-3
				c0.3-1.1,0.5-2.2,0.6-3.2c0.1-0.8,0.3-1.8,0.5-3c0.1-1.1,0.3-2.4,0.5-3.9c0.2-1.5,0.5-3.4,0.8-5.6c0.3,1.6,0.8,3.1,1.4,4.3
				c0.6,1.2,1.2,2.2,1.7,3.1c0.7,1,1.4,1.9,2,2.6c0.9,0.9,2.1,1.7,3.4,2.5c1.3,0.8,2.6,1.4,3.9,1.9c1.3,0.5,2.6,0.9,3.8,1
				c1.2,0.1,2.2,0,3-0.4c0.8-0.4,1.5-1.1,2.1-2.1c0.6-1,1-2.1,1.3-3.3c0.3-1.2,0.3-2.3,0.3-3.4c-0.1-1.1-0.3-2-0.9-2.7
				c-0.4-0.4-1.2-1-2.6-1.7c-1.4-0.7-3-1.4-4.8-2.3c-1.9-0.8-3.8-1.7-5.9-2.5c-2-0.9-4-1.8-5.8-2.7c-1.8-0.9-3.3-1.8-4.4-2.6
				c-1.2-0.9-1.8-1.6-1.9-2.3c-0.1-1-0.2-2.1-0.3-3.4c-0.1-1.2,0-2.5,0.2-3.7c0.2-1.2,0.7-2.4,1.3-3.5c0.7-1.1,1.7-2.1,3-2.8
				c0.9-0.5,2-0.9,3.5-1.1c1.4-0.3,3.1-0.4,4.8-0.4c1.8,0,3.6,0,5.5,0.2c1.9,0.2,3.7,0.3,5.4,0.6c1.7,0.2,3.3,0.5,4.7,0.8
				c1.4,0.3,2.5,0.6,3.3,0.9c0.9,0.3,1.8,0.3,2.8,0.1c0.9-0.2,1.8-0.6,2.8-1.2C185.1,100.6,186.2,99.5,187.3,97.9z"/>
		</g>
		<g>
			<path class="st0" d="M189.5,92.3c1.9,0.2,3.5,0.3,4.8,0.5c1.3,0.1,2.3,0.2,3.2,0.3c0.9,0.1,1.7,0.1,2.3,0.1
				c0.6,0.1,1.3,0.1,2.3,0c0.8-0.1,1.9-0.1,3.2-0.2c1.3-0.1,3-0.3,5-0.5c-0.4,0.6-0.8,1.2-1,1.7c-0.3,0.5-0.5,0.9-0.7,1.3l-0.6,1.1
				c-0.1,0.4-0.3,0.8-0.4,1.1c-0.1,0.3-0.2,0.7-0.3,1.1c-0.1,0.4-0.2,0.9-0.2,1.4h14.5l-1.3,7.7l-13.3-0.8c-0.3,3.2-0.5,5.7-0.7,7.5
				c-0.1,1.8-0.3,3.1-0.4,3.9l-0.2,1.7c-0.2,2.4-0.4,5-0.6,7.8c-0.2,2.8-0.3,5.4-0.2,7.8c0.1,2.4,0.3,4.4,0.7,6c0.4,1.6,1,2.4,2,2.4
				c0.9,0,1.8-0.3,2.6-0.8c0.8-0.5,1.5-1.1,2.1-1.8c0.6-0.7,1.1-1.4,1.4-2.1c0.3-0.7,0.5-1.3,0.5-1.7c0-0.4-0.1-0.8-0.3-1.3
				c-0.3-0.9-0.9-2.1-1.7-3.6c1.8,0.4,3.4,0.9,4.8,1.3c0.7,0.3,1.3,0.5,1.9,0.8c0.6,0.3,1.4,0.5,2.2,0.9c0.7,0.3,1.6,0.7,2.6,1.1
				c1.1,0.4,2.3,1,3.8,1.6c-1.4,0.3-2.4,0.7-3,1.2c-0.4,0.3-0.7,0.5-0.9,0.9c-0.4,0.7-0.9,1.6-1.5,2.8c-0.6,1.2-1.4,2.3-2.6,3.4
				c-1.1,1.1-2.7,2.1-4.6,3c-1.9,0.9-4.5,1.4-7.7,1.5c-3.3,0.1-5.9-0.4-7.6-1.7c-1.7-1.3-3-2.7-3.8-4.4c-0.8-1.7-1.2-3.3-1.4-5
				c-0.1-1.6-0.2-2.7-0.3-3.3c-0.1-0.6-0.1-2,0-4.3c0.1-2.3,0.2-4.8,0.3-7.5c0.1-2.7,0.3-5.4,0.4-7.9c0.1-2.6,0.2-4.4,0.2-5.6
				c0-0.6,0-1.3,0.1-2c0-0.6,0-1.2,0-1.8c0-0.7,0-1.3,0-1.9l-13.7-0.1l-0.6-5.4l13.8,0.4c-0.1-0.7-0.3-1.3-0.4-1.9
				c-0.2-0.6-0.3-1.1-0.4-1.5c-0.2-0.4-0.4-0.8-0.6-1.1c-0.3-0.3-0.5-0.7-0.9-1c-0.3-0.3-0.7-0.7-1.2-1.2
				C190.8,93.5,190.2,92.9,189.5,92.3z"/>
		</g>
		<g>
			<path class="st0" d="M230.7,113.6c0.3-0.4,0.5-1.1,0.6-2.1c0.1-1,0.3-2.2,0.8-3.5c0.4-1.3,1.1-2.7,2.1-4.2c1-1.4,2.6-2.8,4.9-4.1
				c2.2-1.3,4.3-2,6.4-2.3c2.1-0.3,4.1-0.2,6,0.3c1.9,0.4,3.7,1.1,5.3,2.1c1.7,0.9,3.2,2,4.6,3.1c0.9,0.8,1.7,1.8,2.3,3.3
				c0.6,1.4,1,3,1.3,4.8s0.6,3.6,0.7,5.5c0.2,1.9,0.3,3.8,0.3,5.6c0.1,1.8,0.1,3.4,0.1,4.9s0.1,2.7,0.3,3.6c0.3,1.4,0.7,2.6,1.3,3.5
				c0.6,1,1.3,1.8,2.1,2.5c0.8,0.7,1.5,1.2,2.3,1.6c0.8,0.4,1.4,0.7,2,0.8c0.4,0.2,0.7,0.3,1,0.4c0.6,0.3,1.1,0.3,1.3,0
				c-0.4,0.9-0.7,1.6-1,2.3c-0.3,0.6-0.6,1.2-0.8,1.6c-0.3,0.5-0.5,0.9-0.7,1.2c-0.2,0.4-0.4,0.7-0.7,1c-0.2,0.3-0.4,0.7-0.8,1
				c-0.3,0.4-0.6,0.8-0.9,1.2c-0.8-0.3-1.6-0.7-2.3-1.1c-0.7-0.4-1.4-0.9-1.9-1.2c-0.7-0.4-1.3-0.9-1.9-1.3
				c-0.6-0.4-1.1-0.9-1.6-1.5c-0.4-0.5-0.9-1-1.4-1.6c-0.5-0.6-0.9-1.2-1.2-1.9c-0.4,0.8-1.3,2-2.7,3.5c-1.4,1.5-3.3,2.9-5.5,4.1
				c-2.3,1.2-4.9,2.1-7.9,2.6c-3,0.5-6.3,0.2-9.9-1c-1.6-0.5-3.1-1.2-4.4-2.2c-1.4-1-2.6-2.2-3.5-3.5c-1-1.4-1.7-3-2.1-4.8
				c-0.4-1.8-0.4-3.8,0-6c0.4-2.2,1.2-4.1,2.4-5.6c1.1-1.5,2.5-2.7,4.1-3.7c1.6-0.9,3.3-1.7,5.3-2.2c2-0.5,4-0.8,6-1
				c1.6-0.1,3.3,0,4.9,0.3c1.4,0.3,2.8,0.7,4.3,1.4c1.5,0.7,2.8,1.7,3.9,3c-0.1-3.3-0.2-6-0.3-8c-0.2-2-0.3-3.5-0.4-4.6
				c-0.3-1.3-0.5-2.1-0.7-2.6c-0.3-0.4-0.6-0.9-1-1.5c-0.3-0.6-0.8-1.1-1.3-1.6c-0.5-0.5-1.1-0.9-1.9-1.2c-0.8-0.3-1.6-0.4-2.6-0.4
				c-1.1,0.1-1.9,0.3-2.6,0.9c-0.6,0.5-1.1,1.1-1.5,1.7c-0.3,0.7-0.6,1.4-0.6,2.1c-0.1,0.8,0,1.4,0.1,2c0.1,0.4,0.3,0.8,0.6,1.2
				c0.3,0.4,0.6,0.8,1,1.2c0.4,0.4,1,0.8,1.8,1.1c-1.4,0.2-2.7,0.3-3.9,0.4c-1.1,0.1-2.1,0.2-2.9,0.3c-0.9,0.1-1.8,0.2-2.5,0.3
				c-0.7,0.1-1.5,0.2-2.5,0.4c-0.8,0.1-1.8,0.3-3,0.5c-1.2,0.2-2.6,0.4-4.2,0.8c0.4-0.4,0.7-0.9,1-1.3c0.3-0.4,0.6-0.8,0.9-1.1
				C230.2,114.2,230.5,113.9,230.7,113.6z M244.9,124.8c-1.1,0.1-2.3,0.3-3.4,0.8c-1.1,0.5-2.1,1.1-3,2c-0.9,0.9-1.6,1.8-2.2,2.9
				c-0.6,1.1-0.9,2.3-0.9,3.6c0,1.3,0.3,2.5,1,3.4c0.7,1,1.5,1.8,2.6,2.4c1.1,0.6,2.3,1,3.6,1.1c1.3,0.1,2.6,0,3.8-0.4
				c1.2-0.4,2.3-1.1,3.4-2.1c1.1-1,2-2,2.7-3.2c0.8-1.2,1.3-2.3,1.6-3.5c0.3-1.2,0.3-2.1,0.1-2.9c-0.5-1.6-1.6-2.8-3.4-3.4
				C249.1,124.9,247.1,124.7,244.9,124.8z"/>
		</g>
	</g>
	<g>
		<g>
			<path class="st0" d="M52.8,150c4-0.1,7.4,0.7,10,2.2c2.6,1.5,4.7,3.3,6.4,5.4c1.6,2.1,2.9,4.2,3.8,6.3c0.9,2.1,1.6,3.8,2.1,5
				c0.1,0.3,0.4,0.7,0.8,1.2c0.3,0.4,0.8,1,1.4,1.6c0.6,0.6,1.4,1.3,2.3,2c-2,0.1-3.7,0.1-5.2,0.1c-1.5,0-2.8,0.1-3.9,0.1
				c-1.2,0.1-2.3,0.1-3.2,0.2c-0.9,0.1-2.1,0.2-3.5,0.3c-1.3,0.1-2.8,0.3-4.6,0.4c-1.8,0.1-4.1,0.3-6.7,0.6c1.6-1.9,2.8-3.6,3.7-5.1
				c0.9-1.5,1.6-2.8,2.1-4c0.5-1.2,0.8-2.2,0.8-3.1c0.1-0.9,0-1.6-0.1-2.3c-0.4-1.4-1.4-2.5-2.9-3.1c-4.5-1.3-8.5-0.3-11.9,3
				c-3.4,3.2-5.8,8.5-7.2,15.9c-0.7,3.7-1.3,7.4-1.9,11.4c-0.6,3.9-0.8,7.5-0.7,10.8c0.1,3.2,0.8,5.9,1.9,7.9c1.1,2,3.1,3,5.9,2.8
				c2.7-0.1,5-0.6,6.9-1.4c1.9-0.8,3.4-1.7,4.5-2.8c1.1-1.1,1.9-2.3,2.4-3.6c0.5-1.3,0.6-2.5,0.5-3.6c-0.3-0.9-0.9-1.8-2-2.8
				c-0.9-0.9-2.4-1.9-4.2-3c-1.9-1.1-4.6-2.3-8.1-3.4c3.3-0.2,6.1-0.3,8.3-0.4c2.2-0.1,3.9-0.2,5.1-0.3c1.5-0.1,2.7-0.2,3.5-0.3
				c0.8-0.1,1.9-0.1,3.3-0.2c1.3-0.1,2.9-0.1,4.9-0.1c2,0,4.5,0,7.5-0.1c-1.1,1.1-2,2.2-2.6,3.1c-0.3,0.5-0.6,0.9-0.8,1.3
				c-0.3,0.6-0.3,1.9-0.3,3.9c0,1.6,0.1,4,0.4,7.2c0.3,3.2,0.7,7.5,1.4,13L60,217.8l0.6-12.8c-1.4,3.5-3.3,6-5.4,7.7
				c-2.2,1.7-4.2,2.9-6.2,3.6c-2.3,0.8-4.8,1.2-7.3,1.1c-3.3-0.3-6.6-1.1-9.8-2.3c-3.3-1.2-6.2-3-8.7-5.5c-2.5-2.5-4.5-5.7-5.8-9.7
				c-1.4-4-1.8-8.9-1.3-14.7c0.6-5.9,2-11,4.2-15.4c2.2-4.4,5-8,8.4-10.9c3.3-2.9,7.1-5.1,11.3-6.6C44.1,151,48.4,150.1,52.8,150z"
				/>
		</g>
		<g>
			<path class="st0" d="M78.5,173c1.2,0.1,2.3,0.1,3.3,0c1,0,1.8-0.1,2.5-0.1c0.8-0.1,1.5-0.1,2.2-0.2c0.9-0.1,1.9-0.3,2.9-0.5
				c0.9-0.1,1.8-0.3,2.8-0.5c1-0.2,1.9-0.5,2.9-0.8c-0.4,0.9-0.7,1.8-0.9,2.5c-0.3,0.7-0.4,1.3-0.6,1.8c-0.2,0.6-0.3,1-0.3,1.4
				c-0.1,0.4-0.1,1-0.1,1.6c-0.1,1.1-0.1,2.8,0,5.2c3.3-2.8,6-5,8.3-6.6c2.2-1.6,4-2.8,5.3-3.7c1.6-1,2.8-1.7,3.7-2
				c2.3-0.4,4.4,0.2,6.1,1.6c0.8,0.6,1.5,1.5,2.2,2.5c0.7,1,1.3,2.4,1.8,4.1c0.5,1.7,0.9,3.7,1.1,6.1c0.3,2.4,0.3,5.2,0.1,8.5
				c-1.3,0.1-2.5,0.3-3.5,0.4c-1,0.1-1.9,0.2-2.6,0.3c-0.8,0.1-1.6,0.2-2.3,0.2l-2.5,0.3c-0.9,0.1-2,0.2-3.3,0.3
				c-1.3,0.1-2.8,0.2-4.7,0.4c2.6-2.1,4.4-4,5.1-5.6c0.8-1.6,1.1-2.9,1-4c-0.1-1.2-0.7-2.2-1.7-3.1c-1.2-0.7-2.5-0.9-3.9-0.8
				c-1.2,0.1-2.6,0.7-4.2,1.6c-1.6,0.9-3.2,2.7-5,5.3c0.1,4,0.3,7.4,0.4,10c0.2,2.6,0.3,4.8,0.4,6.4c0.2,1.9,0.3,3.4,0.5,4.4
				c0.2,0.9,0.6,2,1.1,3c0.4,0.9,1.1,1.9,1.9,2.9c0.8,1.1,1.9,2.1,3.2,3.2c-2.8-0.1-5-0.1-6.8,0c-1.1,0.1-2,0.1-2.8,0.2
				c-0.9,0.1-1.8,0.3-2.8,0.4c-0.9,0.1-1.9,0.3-3.1,0.4c-1.2,0.2-2.4,0.3-3.8,0.5c0.5-0.7,0.9-1.5,1.2-2.4c0.3-0.9,0.6-1.8,0.8-2.6
				c0.3-0.9,0.4-1.9,0.6-2.9c0.1-0.9,0.1-2.2,0.1-4c0-1.8,0-3.8-0.1-6c-0.1-2.2-0.2-4.6-0.3-7c-0.1-2.4-0.3-4.7-0.5-6.8
				c-0.2-2.1-0.4-4-0.6-5.6c-0.2-1.6-0.5-2.7-0.7-3.4c-0.3-0.8-0.7-1.5-1.1-2.3c-0.4-0.7-0.9-1.4-1.4-2.2
				C79.8,174.7,79.2,173.9,78.5,173z"/>
		</g>
		<g>
			<path class="st0" d="M132.8,180c0.3-0.4,0.5-1.1,0.6-2.1c0.1-1,0.3-2.2,0.8-3.5c0.4-1.3,1.1-2.7,2.1-4.2c1-1.4,2.6-2.8,4.9-4.1
				c2.2-1.3,4.3-2,6.4-2.3c2.1-0.3,4.1-0.2,6,0.3c1.9,0.4,3.7,1.1,5.3,2.1c1.7,0.9,3.2,2,4.6,3.1c0.9,0.8,1.7,1.8,2.3,3.3
				c0.6,1.4,1,3,1.3,4.8c0.3,1.8,0.6,3.6,0.7,5.5c0.2,1.9,0.3,3.8,0.3,5.6c0.1,1.8,0.1,3.4,0.1,4.9c0,1.5,0.1,2.7,0.3,3.6
				c0.3,1.4,0.7,2.6,1.3,3.5c0.6,1,1.3,1.8,2.1,2.5c0.8,0.7,1.5,1.2,2.3,1.6c0.8,0.4,1.4,0.7,2,0.8c0.4,0.2,0.7,0.3,1,0.4
				c0.6,0.3,1.1,0.3,1.3,0c-0.4,0.9-0.7,1.6-1,2.3c-0.3,0.6-0.6,1.2-0.8,1.6c-0.3,0.5-0.5,0.9-0.7,1.2c-0.2,0.4-0.4,0.7-0.7,1
				c-0.2,0.3-0.4,0.7-0.8,1c-0.3,0.4-0.6,0.8-0.9,1.2c-0.8-0.3-1.6-0.7-2.3-1.1c-0.7-0.4-1.4-0.9-1.9-1.2c-0.7-0.4-1.3-0.9-1.9-1.3
				c-0.6-0.4-1.1-0.9-1.6-1.5c-0.4-0.5-0.9-1-1.4-1.6c-0.5-0.6-0.9-1.2-1.2-1.9c-0.4,0.8-1.3,2-2.7,3.5s-3.3,2.9-5.5,4.1
				c-2.3,1.2-4.9,2.1-7.9,2.6c-3,0.5-6.3,0.2-9.9-1c-1.6-0.5-3.1-1.2-4.4-2.2c-1.4-1-2.6-2.2-3.5-3.5c-1-1.4-1.7-3-2.1-4.8
				c-0.4-1.8-0.4-3.8,0-6c0.4-2.2,1.2-4.1,2.4-5.6c1.1-1.5,2.5-2.7,4.1-3.7c1.6-0.9,3.3-1.7,5.3-2.2c2-0.5,4-0.8,6-1
				c1.6-0.1,3.3,0,4.9,0.3c1.4,0.3,2.8,0.7,4.3,1.4c1.5,0.7,2.8,1.7,3.9,3c-0.1-3.3-0.2-6-0.3-8c-0.2-2-0.3-3.5-0.4-4.6
				c-0.3-1.3-0.5-2.1-0.7-2.6c-0.3-0.4-0.6-0.9-1-1.5c-0.3-0.6-0.8-1.1-1.3-1.6c-0.5-0.5-1.1-0.9-1.9-1.2c-0.8-0.3-1.6-0.4-2.6-0.4
				c-1.1,0.1-1.9,0.3-2.5,0.9c-0.6,0.5-1.1,1.1-1.5,1.7c-0.3,0.7-0.6,1.4-0.6,2.1c-0.1,0.8,0,1.4,0.1,2c0.1,0.4,0.3,0.8,0.6,1.2
				c0.3,0.4,0.6,0.8,1,1.2c0.4,0.4,1,0.8,1.8,1.1c-1.4,0.2-2.7,0.3-3.9,0.4c-1.1,0.1-2.1,0.2-2.9,0.3c-0.9,0.1-1.8,0.2-2.5,0.3
				c-0.7,0.1-1.5,0.2-2.5,0.4c-0.8,0.1-1.8,0.3-3,0.5c-1.2,0.2-2.6,0.4-4.2,0.8c0.4-0.4,0.7-0.9,1-1.3c0.3-0.4,0.6-0.8,0.9-1.1
				C132.3,180.6,132.5,180.3,132.8,180z M147,191.2c-1.1,0.1-2.3,0.3-3.4,0.8c-1.1,0.5-2.1,1.1-3,2c-0.9,0.9-1.6,1.8-2.2,2.9
				c-0.6,1.1-0.9,2.3-0.9,3.6c0,1.3,0.3,2.5,1,3.4c0.7,1,1.5,1.8,2.6,2.4c1.1,0.6,2.3,1,3.6,1.1c1.3,0.1,2.6,0,3.8-0.4
				c1.2-0.4,2.3-1.1,3.4-2.1c1.1-1,2-2,2.7-3.2c0.8-1.2,1.3-2.3,1.6-3.5c0.3-1.2,0.3-2.1,0.1-2.9c-0.5-1.6-1.6-2.8-3.4-3.4
				C151.1,191.3,149.2,191.1,147,191.2z"/>
		</g>
		<g>
			<path class="st0" d="M177.2,173.4c1.4-0.1,2.7-0.3,3.7-0.4c1-0.1,1.9-0.3,2.6-0.4c0.8-0.1,1.5-0.3,2.1-0.4
				c0.6-0.1,1.2-0.2,1.9-0.4c0.6-0.1,1.3-0.3,2.1-0.5c0.8-0.2,1.7-0.5,2.6-0.8l-0.6,12c1.4-2.2,3-3.9,4.8-5.1c1.8-1.2,3.6-2,5.2-2.6
				c2-0.7,3.9-1.1,5.9-1.2c2,0.1,3.9,0.4,5.6,0.9c1.4,0.5,2.9,1.3,4.4,2.4c1.5,1.1,2.6,2.6,3.4,4.7c2.1-2.2,4.3-3.9,6.4-5.1
				c2.1-1.2,4-2.2,5.6-2.8c2-0.7,3.8-1.1,5.5-1.2c2.3-0.1,4.4,0.3,6.3,1.1c1.9,0.8,3.6,1.8,5.1,3.1c1.4,1.2,2.6,2.5,3.5,3.9
				c0.9,1.4,1.4,2.5,1.5,3.5c0.2,1.4,0.1,3.2-0.3,5.3c-0.4,2.2-0.8,4.4-1.3,6.6c-0.5,2.2-1,4.3-1.4,6.1c-0.4,1.9-0.6,3.2-0.5,3.9
				c0.2,0.6,0.6,1.4,1.3,2.3c0.6,0.8,1.6,1.7,2.8,2.8c1.2,1.1,3,2.4,5.3,3.8c-2-0.1-3.8-0.1-5.3-0.2c-1.5-0.1-2.8-0.2-3.9-0.3
				c-1.3-0.1-2.4-0.2-3.3-0.3c-0.8,0-1.7-0.1-2.7-0.2c-0.9-0.1-2-0.2-3.4-0.3c-1.4-0.1-3-0.3-4.9-0.4c0.7-0.2,1.3-0.6,1.7-1.1
				c0.4-0.5,0.8-1.1,1.1-1.6c0.3-0.6,0.6-1.3,0.8-2.1c0.1-0.6,0.3-1.6,0.4-3c0.1-1.4,0.2-3,0.3-4.7c0.1-1.8,0.2-3.6,0.2-5.6
				c0-2,0-3.8,0-5.6c-0.1-1.8-0.2-3.4-0.4-4.8c-0.2-1.4-0.4-2.6-0.8-3.3c-0.3-0.6-0.7-1-1.3-1.4c-0.6-0.3-1.4-0.6-2.2-0.7
				c-0.8-0.1-1.6-0.1-2.5,0.1c-0.8,0.2-1.5,0.4-2.2,0.8c-0.6,0.4-1.3,1-2.3,1.8c-0.8,0.7-1.9,1.6-3.2,2.8c-1.3,1.2-3,2.7-5,4.5
				c-0.2,4-0.3,7.2-0.4,9.6c-0.1,2.4-0.2,4.3-0.2,5.5c-0.1,1.5-0.1,2.6-0.1,3.1c-0.1,0.5,0,1,0.1,1.4c0.1,0.9,0.5,1.8,1.1,2.6
				c-0.8-0.2-1.6-0.3-2.4-0.4c-0.8-0.1-1.6-0.1-2.3-0.2c-0.8-0.1-1.6-0.1-2.5-0.1c-0.7,0-1.4,0-2.3,0.1c-0.7,0.1-1.5,0.1-2.5,0.2
				c-1,0.1-2.1,0.2-3.3,0.3c0.5-0.3,0.9-0.7,1.2-1.1c0.3-0.4,0.6-0.8,0.8-1.2c0.3-0.4,0.4-0.8,0.6-1.2c0.1-0.4,0.2-1.3,0.4-2.8
				c0.2-1.5,0.3-3.2,0.4-5.2c0.1-2,0.1-4.1,0-6.4c-0.1-2.2-0.3-4.3-0.7-6.1c-0.4-1.9-1-3.4-1.7-4.6c-0.8-1.2-1.8-1.7-3.1-1.6
				c-1.5,0.1-3.1,0.5-4.6,1.1c-1.3,0.5-2.7,1.3-4.3,2.3c-1.5,1-2.9,2.4-4.3,4.1c-0.3,4.7-0.4,8.5-0.4,11.2c0,2.8,0,4.9,0,6.3
				c0.1,1.7,0.1,2.9,0.2,3.5c0.1,0.4,0.2,0.9,0.5,1.3c0.2,0.4,0.4,0.8,0.7,1.3c0.3,0.5,0.6,1,1,1.4l-15-0.8c0.5-0.3,0.9-0.6,1.3-1
				c0.4-0.4,0.7-0.8,0.9-1.3c0.3-0.5,0.5-1,0.8-1.5c0.2-0.4,0.4-1.5,0.5-3.1c0.2-1.6,0.3-3.6,0.4-5.8c0.1-2.2,0.2-4.6,0.3-7.1
				c0.1-2.5,0.2-4.8,0.2-7c0-2.2,0-4,0-5.6c0-1.5,0-2.5-0.1-2.8c-0.2-0.6-0.5-1.3-1-2c-0.4-0.5-1-1.1-1.8-1.7
				C179.5,174.2,178.5,173.8,177.2,173.4z"/>
		</g>
	</g>
</g>
</svg>
