<?xml version="1.0" encoding="utf-8"?>
<!-- Generator: Adobe Illustrator 23.0.3, SVG Export Plug-In . SVG Version: 6.00 Build 0)  -->
<svg version="1.1" id="Layer_1" xmlns="http://www.w3.org/2000/svg" xmlns:xlink="http://www.w3.org/1999/xlink" x="0px" y="0px"
	 width="1920px" height="1080px" viewBox="0 0 1920 1080" style="enable-background:new 0 0 1920 1080;" xml:space="preserve">
<style type="text/css">
	.st0{fill:#D6D6D6;}
	.st1{fill-rule:evenodd;clip-rule:evenodd;fill:#FFFFFF;}
</style>
<g>
	<rect class="st0" width="1920" height="1080"/>
</g>
<g>
	<path class="st1" d="M835.8,407.7c-45.7-29-124.8-52.5-141.5-34c-16.7,18.5,12.4,95.8,45.7,138.4
		C775.9,557.2,885.2,439.2,835.8,407.7z"/>
	<path class="st1" d="M1084.2,407.7c45.7-29,124.8-52.5,141.5-34c16.7,18.5-12.4,95.8-45.7,138.4
		C1143.5,557.2,1034.8,439.2,1084.2,407.7z"/>
	<ellipse class="st1" cx="1047.7" cy="578.2" rx="8.7" ry="29.7"/>
	<ellipse class="st1" cx="872.9" cy="578.2" rx="8.7" ry="29.7"/>
	<path class="st1" d="M960,375.5c-123.6,0.6-224.3,76-224.3,169.3c0,92.7,100.7,168.1,224.3,168.1s224.9-76,224.9-168.7
		S1084.2,375.5,960,375.5z M872.9,619c-32.7,0-59.9-27.2-59.9-59.9c0-32.7,26.6-59.3,59.9-59.3c33.4,0,59.9,26.6,59.9,59.3
		C932.8,592.4,905.6,619,872.9,619z M960,657.3c-24.7,0-54.4-27.2,0-28.4C1015,630.1,984.7,657.3,960,657.3z M1047.7,619
		c-33.4,0-59.9-27.2-59.9-59.9c0-32.7,27.2-59.3,59.9-59.3c33.4,0,59.9,26.6,59.9,59.3C1107.7,592.4,1080.5,619,1047.7,619z"/>
	<path class="st1" d="M715.9,579.4c-22.9,0-42.6,12.4-51.3,30.3c-0.6,0-1.9,0-2.5,0c-25.3,0-46.3,18.5-46.3,42
		c0,32.1,33.4,50,63.6,38.9c18.5,27.2,58.1,29,72.9,0c22.9-0.6,58.7-4.3,63.6-38.9c3.1-22.9-20.4-42-46.3-42c-0.6,0-1.9,0-2.5,0
		C758.6,592.4,738.8,579.4,715.9,579.4L715.9,579.4z M1204.7,579.4c22.9,0,42.6,12.4,51.3,30.3c0.6,0-10.5,0,2.5,0
		s46.3,18.5,46.3,42c0,32.1-33.4,50-63.6,38.9c-18.5,27.2-58.1,29-72.9,0c-22.9-0.6-58.7-4.3-63.6-38.9c-3.1-22.9,32.7-42,46.3-42
		c13,0,1.9,0,2.5,0C1162,592.4,1181.8,579.4,1204.7,579.4z"/>
	<g>
		<g>
			<path class="st1" d="M1136.1,614.7c56.2-69.2,169.9-103.2,245.9-55C1293.6,546.7,1212.7,568.9,1136.1,614.7z"/>
			<path class="st1" d="M1133,598c31.5-74.1,124.8-122.3,200.2-96.4C1254.1,511.5,1190.5,543,1133,598z"/>
			<path class="st1" d="M1131.1,634.4c56.8-54.4,184.7-73.5,223.7-16.1C1276.3,593.7,1207.8,604.8,1131.1,634.4z"/>
		</g>
		<g>
			<path class="st1" d="M783.9,614.7c-55.6-69.2-169.3-103.2-245.9-55C627,546.7,707.9,568.9,783.9,614.7z"/>
			<path class="st1" d="M787.6,598c-31.5-74.1-124.8-122.3-200.2-96.4C666.5,511.5,730.2,543,787.6,598z"/>
			<path class="st1" d="M788.9,634.4c-56.8-54.4-184.7-73.5-223.7-16.1C644.3,593.7,712.2,604.8,788.9,634.4z"/>
		</g>
	</g>
</g>
</svg>
