<?xml version="1.0" encoding="utf-8"?>
<!-- Generator: Adobe Illustrator 23.0.3, SVG Export Plug-In . SVG Version: 6.00 Build 0)  -->
<svg version="1.1" id="Layer_1" xmlns="http://www.w3.org/2000/svg" xmlns:xlink="http://www.w3.org/1999/xlink" x="0px" y="0px"
	 width="1920px" height="1080px" viewBox="0 0 1920 1080" style="enable-background:new 0 0 1920 1080;" xml:space="preserve">
<style type="text/css">
	.st0{fill:#D6D6D6;}
	.st1{fill-rule:evenodd;clip-rule:evenodd;fill:#FFFFFF;}
</style>
<g>
	<rect class="st0" width="1920" height="1080"/>
</g>
<path class="st1" d="M882.7,457.6c-28.5-18.1-77.7-32.7-88.1-21.2c-10.4,11.5,7.7,59.6,28.5,86.2
	C845.4,550.7,913.5,477.2,882.7,457.6z"/>
<path class="st1" d="M1037.3,457.6c28.5-18.1,77.7-32.7,88.1-21.2c10.4,11.5-7.7,59.6-28.5,86.2
	C1074.2,550.7,1006.5,477.2,1037.3,457.6z"/>
<ellipse class="st1" cx="1014.6" cy="563.8" rx="5.4" ry="18.5"/>
<ellipse class="st1" cx="905.8" cy="563.8" rx="5.4" ry="18.5"/>
<path class="st1" d="M960,437.6C883.1,438,820.4,484.9,820.4,543c0,57.7,62.7,104.6,139.6,104.6s140-47.3,140-105
	S1037.3,437.6,960,437.6z M905.8,589.2c-20.4,0-37.3-16.9-37.3-37.3c0-20.4,16.5-36.9,37.3-36.9c20.8,0,37.3,16.5,37.3,36.9
	C943.1,572.6,926.2,589.2,905.8,589.2z M960,613c-15.4,0-33.8-16.9,0-17.7C994.2,596.1,975.4,613,960,613z M1014.6,589.2
	c-20.8,0-37.3-16.9-37.3-37.3c0-20.4,16.9-36.9,37.3-36.9c20.8,0,37.3,16.5,37.3,36.9C1051.9,572.6,1035,589.2,1014.6,589.2z"/>
<path class="st1" d="M808.1,564.6c-14.2,0-26.5,7.7-31.9,18.8c-0.4,0-1.2,0-1.5,0c-15.8,0-28.8,11.5-28.8,26.2
	c0,20,20.8,31.2,39.6,24.2c11.5,16.9,36.2,18.1,45.4,0c14.2-0.4,36.5-2.7,39.6-24.2c1.9-14.2-12.7-26.2-28.8-26.2
	c-0.4,0-1.2,0-1.5,0C834.6,572.6,822.3,564.6,808.1,564.6L808.1,564.6z M1112.3,564.6c14.2,0,26.5,7.7,31.9,18.8c0.4,0-6.5,0,1.5,0
	s28.8,11.5,28.8,26.2c0,20-20.8,31.2-39.6,24.2c-11.5,16.9-36.2,18.1-45.4,0c-14.2-0.4-36.5-2.7-39.6-24.2
	c-1.9-14.2,20.4-26.2,28.8-26.2c8.1,0,1.2,0,1.5,0C1085.8,572.6,1098.1,564.6,1112.3,564.6z"/>
<g>
	<g>
		<path class="st1" d="M1069.6,586.5c35-43.1,105.8-64.2,153.1-34.2C1167.7,544.2,1117.3,558,1069.6,586.5z"/>
		<path class="st1" d="M1067.7,576.1c19.6-46.2,77.7-76.2,124.6-60C1143.1,522.2,1103.5,541.9,1067.7,576.1z"/>
		<path class="st1" d="M1066.5,598.8c35.4-33.8,115-45.8,139.2-10C1156.9,573.4,1114.2,580.3,1066.5,598.8z"/>
	</g>
	<g>
		<path class="st1" d="M850.4,586.5c-34.6-43.1-105.4-64.2-153.1-34.2C752.7,544.2,803.1,558,850.4,586.5z"/>
		<path class="st1" d="M852.7,576.1c-19.6-46.2-77.7-76.2-124.6-60C777.3,522.2,816.9,541.9,852.7,576.1z"/>
		<path class="st1" d="M853.5,598.8c-35.4-33.8-115-45.8-139.2-10C763.5,573.4,805.8,580.3,853.5,598.8z"/>
	</g>
</g>
</svg>
